<svg xmlns="http://www.w3.org/2000/svg" xmlns:xlink="http://www.w3.org/1999/xlink" width="500" zoomAndPan="magnify" viewBox="0 0 375 374.999991" height="500" preserveAspectRatio="xMidYMid meet" version="1.0"><defs><g/></defs><g fill="#ffc1b2" fill-opacity="0.302"><g transform="translate(35.346931, 200.272369)"><g><path d="M 37.011719 -0.730469 C 37.011719 -0.894531 36.929688 -1.015625 36.808594 -1.097656 C 35.875 -1.871094 35.261719 -2.847656 34.9375 -4.066406 L 25.21875 -37.664062 C 25.011719 -38.3125 25.136719 -38.921875 25.625 -39.410156 C 25.746094 -39.613281 25.746094 -39.820312 25.664062 -40.0625 C 25.542969 -40.304688 25.339844 -40.429688 25.09375 -40.429688 L 14.355469 -40.429688 C 14.113281 -40.429688 13.910156 -40.304688 13.789062 -40.0625 C 13.664062 -39.820312 13.664062 -39.613281 13.828125 -39.410156 C 14.316406 -38.921875 14.4375 -38.3125 14.234375 -37.664062 L 4.554688 -4.027344 C 4.230469 -2.886719 3.578125 -1.910156 2.644531 -1.097656 C 2.523438 -0.976562 2.441406 -0.855469 2.441406 -0.730469 C 2.398438 -0.527344 2.441406 -0.367188 2.5625 -0.203125 C 2.683594 -0.0390625 2.847656 0 3.089844 0 L 12.527344 0 C 12.769531 0 12.972656 -0.0820312 13.054688 -0.324219 C 13.136719 -0.570312 13.136719 -0.773438 12.972656 -0.976562 C 12.488281 -1.464844 12.363281 -2.074219 12.527344 -2.726562 L 13.789062 -6.953125 C 13.910156 -7.402344 14.152344 -7.769531 14.519531 -8.011719 C 14.84375 -8.257812 15.253906 -8.417969 15.742188 -8.417969 L 23.753906 -8.417969 C 24.199219 -8.417969 24.605469 -8.257812 24.972656 -8.011719 C 25.296875 -7.769531 25.542969 -7.402344 25.703125 -6.953125 L 26.925781 -2.726562 C 27.085938 -2.074219 26.925781 -1.503906 26.519531 -1.015625 L 26.519531 -0.976562 C 26.355469 -0.730469 26.355469 -0.527344 26.476562 -0.324219 C 26.558594 -0.0820312 26.761719 0 27.046875 0 L 36.402344 0 C 36.605469 0 36.769531 -0.0390625 36.890625 -0.203125 C 37.011719 -0.367188 37.050781 -0.527344 37.011719 -0.730469 Z M 22.371094 -16.472656 L 17.125 -16.472656 C 16.960938 -16.472656 16.839844 -16.511719 16.757812 -16.636719 C 16.636719 -16.757812 16.59375 -16.917969 16.675781 -17.082031 L 19.320312 -26.152344 C 19.359375 -26.355469 19.480469 -26.476562 19.726562 -26.476562 C 19.96875 -26.476562 20.09375 -26.355469 20.171875 -26.152344 L 22.777344 -17.082031 C 22.816406 -16.917969 22.777344 -16.757812 22.695312 -16.636719 C 22.613281 -16.511719 22.492188 -16.472656 22.371094 -16.472656 Z M 22.371094 -16.472656 "/></g></g></g><g fill="#ffc1b2" fill-opacity="0.302"><g transform="translate(74.831746, 200.272369)"><g><path d="M 29.570312 -8.988281 L 29.082031 -8.582031 C 28.632812 -8.175781 28.144531 -8.011719 27.617188 -8.011719 L 15.007812 -8.011719 C 14.722656 -8.011719 14.480469 -8.09375 14.316406 -8.257812 C 14.113281 -8.417969 14.03125 -8.664062 14.03125 -8.988281 L 14.03125 -36.808594 C 14.03125 -37.742188 14.355469 -38.597656 15.007812 -39.332031 L 15.046875 -39.371094 C 15.171875 -39.574219 15.171875 -39.777344 15.089844 -40.023438 C 14.96875 -40.226562 14.765625 -40.347656 14.519531 -40.347656 L 5.53125 -40.347656 C 5.246094 -40.347656 5.042969 -40.226562 4.960938 -40.023438 C 4.839844 -39.777344 4.839844 -39.574219 5.003906 -39.371094 C 5.652344 -38.640625 5.980469 -37.785156 5.980469 -36.847656 L 5.980469 -0.894531 C 5.980469 -0.609375 6.058594 -0.367188 6.261719 -0.203125 C 6.425781 0 6.671875 0.0820312 6.953125 0.0820312 L 27.617188 0.0820312 C 28.144531 0.0820312 28.632812 0.285156 29.082031 0.652344 L 29.570312 1.058594 C 29.773438 1.21875 29.976562 1.21875 30.21875 1.097656 C 30.421875 1.015625 30.546875 0.8125 30.546875 0.527344 L 30.546875 -8.460938 C 30.546875 -8.703125 30.421875 -8.90625 30.21875 -9.027344 C 29.976562 -9.109375 29.773438 -9.109375 29.570312 -8.988281 Z M 29.570312 -8.988281 "/></g></g></g><g fill="#ffc1b2" fill-opacity="0.302"><g transform="translate(107.85097, 200.272369)"><g><path d="M 14.074219 -3.578125 L 14.074219 -36.847656 C 14.074219 -37.824219 14.398438 -38.679688 15.046875 -39.410156 C 15.171875 -39.613281 15.171875 -39.820312 15.089844 -40.0625 C 14.96875 -40.304688 14.765625 -40.429688 14.519531 -40.429688 L 5.53125 -40.429688 C 5.246094 -40.429688 5.042969 -40.304688 4.960938 -40.0625 C 4.839844 -39.820312 4.839844 -39.613281 5.003906 -39.410156 C 5.652344 -38.679688 6.019531 -37.824219 6.019531 -36.847656 L 6.019531 -3.578125 C 6.019531 -2.601562 5.652344 -1.75 5.003906 -1.015625 C 4.839844 -0.773438 4.839844 -0.570312 4.960938 -0.324219 C 5.042969 -0.0820312 5.246094 0 5.53125 0 L 14.519531 0 C 14.765625 0 14.96875 -0.0820312 15.089844 -0.324219 C 15.171875 -0.570312 15.171875 -0.773438 15.046875 -1.015625 C 14.722656 -1.34375 14.480469 -1.75 14.316406 -2.195312 C 14.152344 -2.644531 14.074219 -3.089844 14.074219 -3.578125 Z M 14.074219 -3.578125 "/></g></g></g><g fill="#ffc1b2" fill-opacity="0.302"><g transform="translate(127.939023, 200.272369)"><g><path d="M 44.046875 -3.417969 L 44.046875 -37.011719 C 44.046875 -37.90625 44.332031 -38.71875 44.984375 -39.410156 C 45.144531 -39.613281 45.1875 -39.820312 45.105469 -40.0625 C 44.984375 -40.304688 44.820312 -40.429688 44.578125 -40.429688 L 35.996094 -40.429688 L 35.953125 -40.386719 L 35.953125 -40.429688 L 34.855469 -40.429688 C 34.570312 -40.429688 34.367188 -40.304688 34.285156 -40.0625 C 34.164062 -39.820312 34.164062 -39.613281 34.328125 -39.410156 C 34.492188 -39.167969 34.449219 -39.003906 34.285156 -38.882812 L 25.910156 -31.15625 C 25.625 -30.910156 25.296875 -30.828125 24.972656 -30.828125 C 24.648438 -30.828125 24.363281 -30.910156 24.117188 -31.15625 L 15.617188 -38.964844 C 15.457031 -39.085938 15.457031 -39.207031 15.617188 -39.371094 C 15.78125 -39.574219 15.820312 -39.820312 15.742188 -40.0625 C 15.617188 -40.304688 15.414062 -40.429688 15.128906 -40.429688 L 5.53125 -40.429688 C 5.246094 -40.429688 5.042969 -40.304688 4.960938 -40.0625 C 4.839844 -39.820312 4.839844 -39.613281 5.003906 -39.410156 L 5.042969 -39.371094 C 5.652344 -38.679688 5.980469 -37.867188 5.980469 -36.972656 L 5.980469 -3.457031 C 5.980469 -2.523438 5.652344 -1.707031 5.042969 -1.058594 L 5.003906 -1.015625 C 4.839844 -0.773438 4.839844 -0.570312 4.960938 -0.324219 C 5.042969 -0.0820312 5.246094 0 5.53125 0 L 14.519531 0 C 14.765625 0 14.96875 -0.0820312 15.089844 -0.324219 C 15.171875 -0.570312 15.171875 -0.773438 15.046875 -1.015625 L 14.96875 -1.097656 C 14.316406 -1.75 14.03125 -2.5625 14.03125 -3.496094 L 14.03125 -28.144531 C 14.03125 -28.390625 14.113281 -28.550781 14.355469 -28.632812 C 14.601562 -28.714844 14.804688 -28.714844 15.007812 -28.550781 L 24.117188 -20.09375 C 24.363281 -19.847656 24.648438 -19.726562 25.011719 -19.726562 C 25.339844 -19.726562 25.664062 -19.847656 25.910156 -20.09375 L 35.019531 -28.550781 C 35.183594 -28.714844 35.386719 -28.714844 35.628906 -28.632812 C 35.875 -28.550781 35.996094 -28.390625 35.996094 -28.144531 L 35.996094 -3.539062 C 35.996094 -2.644531 35.667969 -1.832031 35.019531 -1.140625 L 34.9375 -1.015625 C 34.773438 -0.773438 34.773438 -0.570312 34.898438 -0.324219 C 34.976562 -0.0820312 35.183594 0 35.464844 0 L 44.578125 0 C 44.820312 0 44.984375 -0.0820312 45.105469 -0.324219 C 45.1875 -0.570312 45.144531 -0.773438 44.984375 -1.015625 C 44.332031 -1.667969 44.046875 -2.480469 44.046875 -3.417969 Z M 44.046875 -3.417969 "/></g></g></g><g fill="#ffc1b2" fill-opacity="0.302"><g transform="translate(177.955835, 200.272369)"><g><path d="M 29.609375 -40.714844 C 28.917969 -40.0625 28.105469 -39.777344 27.210938 -39.777344 L 5.53125 -39.777344 C 5.246094 -39.777344 5.042969 -39.65625 4.960938 -39.410156 C 4.839844 -39.167969 4.839844 -38.964844 5.003906 -38.761719 L 5.125 -38.640625 C 5.777344 -37.90625 6.101562 -37.050781 6.101562 -36.078125 L 6.101562 -3.050781 C 6.101562 -2.5625 6.019531 -2.113281 5.855469 -1.667969 C 5.695312 -1.21875 5.449219 -0.8125 5.125 -0.488281 L 5.003906 -0.367188 C 4.839844 -0.121094 4.839844 0.0820312 4.960938 0.324219 C 5.042969 0.570312 5.246094 0.652344 5.53125 0.652344 L 27.210938 0.652344 C 28.105469 0.652344 28.917969 0.976562 29.609375 1.585938 C 29.8125 1.789062 30.058594 1.832031 30.300781 1.707031 C 30.546875 1.625 30.707031 1.421875 30.707031 1.097656 L 30.707031 -7.972656 C 30.707031 -8.214844 30.585938 -8.417969 30.339844 -8.542969 C 30.097656 -8.621094 29.855469 -8.582031 29.691406 -8.417969 C 28.957031 -7.726562 28.105469 -7.402344 27.128906 -7.402344 L 15.171875 -7.402344 C 14.886719 -7.402344 14.640625 -7.484375 14.4375 -7.6875 C 14.234375 -7.851562 14.152344 -8.09375 14.152344 -8.417969 L 14.152344 -14.519531 C 14.152344 -14.804688 14.234375 -15.046875 14.4375 -15.253906 C 14.640625 -15.414062 14.886719 -15.535156 15.171875 -15.535156 L 18.75 -15.535156 C 19.726562 -15.535156 20.582031 -15.171875 21.3125 -14.519531 C 21.515625 -14.355469 21.71875 -14.355469 21.964844 -14.480469 C 22.207031 -14.601562 22.328125 -14.804688 22.328125 -15.046875 L 22.328125 -24.078125 C 22.328125 -24.320312 22.207031 -24.484375 21.964844 -24.605469 C 21.71875 -24.730469 21.515625 -24.730469 21.3125 -24.605469 C 20.582031 -23.914062 19.726562 -23.589844 18.75 -23.589844 L 15.171875 -23.589844 C 14.886719 -23.589844 14.640625 -23.671875 14.4375 -23.875 C 14.234375 -24.039062 14.152344 -24.28125 14.152344 -24.605469 L 14.152344 -30.707031 C 14.152344 -30.992188 14.234375 -31.238281 14.4375 -31.441406 C 14.640625 -31.601562 14.886719 -31.722656 15.171875 -31.722656 L 27.128906 -31.722656 C 28.105469 -31.722656 28.957031 -31.359375 29.691406 -30.707031 C 29.855469 -30.503906 30.097656 -30.464844 30.339844 -30.585938 C 30.585938 -30.667969 30.707031 -30.871094 30.707031 -31.15625 L 30.707031 -40.265625 C 30.707031 -40.511719 30.546875 -40.714844 30.300781 -40.835938 C 30.058594 -40.917969 29.8125 -40.875 29.609375 -40.714844 Z M 29.609375 -40.714844 "/></g></g></g><g fill="#ffc1b2" fill-opacity="0.302"><g transform="translate(213.536899, 200.272369)"><g><path d="M 37.90625 -1.015625 L 37.867188 -1.058594 C 37.214844 -1.707031 36.929688 -2.523438 36.929688 -3.496094 L 36.929688 -36.929688 C 36.929688 -37.867188 37.214844 -38.679688 37.867188 -39.371094 L 37.90625 -39.410156 C 38.027344 -39.613281 38.027344 -39.820312 37.949219 -40.0625 C 37.824219 -40.304688 37.621094 -40.429688 37.378906 -40.429688 L 28.390625 -40.429688 C 28.105469 -40.429688 27.902344 -40.304688 27.820312 -40.0625 C 27.699219 -39.820312 27.699219 -39.613281 27.859375 -39.410156 L 27.902344 -39.371094 C 28.511719 -38.679688 28.835938 -37.867188 28.835938 -36.929688 L 28.835938 -16.714844 C 28.835938 -16.554688 28.753906 -16.433594 28.59375 -16.390625 C 28.429688 -16.351562 28.308594 -16.390625 28.226562 -16.554688 L 15.496094 -37.949219 C 15.171875 -38.433594 15.253906 -38.921875 15.660156 -39.410156 C 15.78125 -39.613281 15.78125 -39.820312 15.699219 -40.0625 C 15.578125 -40.304688 15.375 -40.429688 15.128906 -40.429688 L 14.03125 -40.429688 L 14.03125 -40.386719 L 14.03125 -40.429688 L 5.53125 -40.429688 C 5.246094 -40.429688 5.042969 -40.304688 4.960938 -40.0625 C 4.839844 -39.820312 4.839844 -39.613281 5.003906 -39.410156 C 5.652344 -38.679688 5.980469 -37.867188 5.980469 -36.972656 L 5.980469 -3.457031 C 5.980469 -2.523438 5.652344 -1.707031 5.003906 -1.015625 C 4.839844 -0.773438 4.839844 -0.570312 4.960938 -0.324219 C 5.042969 -0.0820312 5.246094 0 5.53125 0 L 14.519531 0 C 14.765625 0 14.96875 -0.0820312 15.089844 -0.324219 C 15.171875 -0.570312 15.171875 -0.773438 15.046875 -1.015625 L 14.96875 -1.097656 C 14.316406 -1.75 14.03125 -2.5625 14.03125 -3.539062 L 14.03125 -23.710938 C 14.03125 -23.875 14.074219 -23.957031 14.234375 -23.996094 C 14.398438 -24.039062 14.519531 -23.996094 14.640625 -23.875 L 27.414062 -2.441406 C 27.65625 -1.910156 27.617188 -1.421875 27.25 -1.015625 C 27.085938 -0.773438 27.085938 -0.570312 27.210938 -0.324219 C 27.292969 -0.0820312 27.496094 0 27.78125 0 L 37.378906 0 C 37.621094 0 37.824219 -0.0820312 37.949219 -0.324219 C 38.027344 -0.570312 38.027344 -0.773438 37.90625 -1.015625 Z M 37.90625 -1.015625 "/></g></g></g><g fill="#ffc1b2" fill-opacity="0.302"><g transform="translate(256.437501, 200.272369)"><g><path d="M 31.847656 -41.445312 L 31.804688 -41.40625 C 31.074219 -40.753906 30.261719 -40.429688 29.324219 -40.429688 L 8.417969 -40.429688 C 7.441406 -40.429688 6.628906 -40.753906 5.898438 -41.40625 L 5.898438 -41.445312 C 5.652344 -41.566406 5.449219 -41.566406 5.207031 -41.445312 C 4.960938 -41.324219 4.878906 -41.160156 4.878906 -40.917969 L 4.878906 -31.886719 C 4.878906 -31.601562 4.960938 -31.398438 5.207031 -31.316406 C 5.449219 -31.195312 5.652344 -31.195312 5.898438 -31.359375 C 6.628906 -32.007812 7.441406 -32.375 8.417969 -32.375 L 14.03125 -32.375 C 14.234375 -32.375 14.4375 -32.292969 14.601562 -32.132812 C 14.765625 -31.96875 14.84375 -31.765625 14.84375 -31.5625 L 14.84375 -3.578125 C 14.84375 -2.601562 14.519531 -1.75 13.871094 -1.058594 L 13.828125 -1.015625 C 13.664062 -0.773438 13.664062 -0.570312 13.789062 -0.324219 C 13.871094 -0.0820312 14.074219 0 14.355469 0 L 23.386719 0 C 23.628906 0 23.792969 -0.0820312 23.914062 -0.324219 C 24.039062 -0.570312 24.039062 -0.773438 23.914062 -1.015625 C 23.222656 -1.75 22.898438 -2.5625 22.898438 -3.539062 L 22.898438 -31.5625 C 22.898438 -31.765625 22.980469 -31.96875 23.144531 -32.132812 C 23.304688 -32.292969 23.46875 -32.375 23.710938 -32.375 L 29.324219 -32.375 C 30.300781 -32.375 31.113281 -32.007812 31.804688 -31.359375 L 31.847656 -31.359375 C 32.050781 -31.195312 32.253906 -31.195312 32.496094 -31.316406 C 32.742188 -31.398438 32.863281 -31.601562 32.863281 -31.886719 L 32.863281 -40.917969 C 32.863281 -41.160156 32.742188 -41.324219 32.496094 -41.445312 C 32.253906 -41.566406 32.050781 -41.566406 31.847656 -41.445312 Z M 31.847656 -41.445312 "/></g></g></g><g fill="#ffc1b2" fill-opacity="0.302"><g transform="translate(294.173773, 200.272369)"><g><path d="M 37.011719 -0.730469 C 37.011719 -0.894531 36.929688 -1.015625 36.808594 -1.097656 C 35.875 -1.871094 35.261719 -2.847656 34.9375 -4.066406 L 25.21875 -37.664062 C 25.011719 -38.3125 25.136719 -38.921875 25.625 -39.410156 C 25.746094 -39.613281 25.746094 -39.820312 25.664062 -40.0625 C 25.542969 -40.304688 25.339844 -40.429688 25.09375 -40.429688 L 14.355469 -40.429688 C 14.113281 -40.429688 13.910156 -40.304688 13.789062 -40.0625 C 13.664062 -39.820312 13.664062 -39.613281 13.828125 -39.410156 C 14.316406 -38.921875 14.4375 -38.3125 14.234375 -37.664062 L 4.554688 -4.027344 C 4.230469 -2.886719 3.578125 -1.910156 2.644531 -1.097656 C 2.523438 -0.976562 2.441406 -0.855469 2.441406 -0.730469 C 2.398438 -0.527344 2.441406 -0.367188 2.5625 -0.203125 C 2.683594 -0.0390625 2.847656 0 3.089844 0 L 12.527344 0 C 12.769531 0 12.972656 -0.0820312 13.054688 -0.324219 C 13.136719 -0.570312 13.136719 -0.773438 12.972656 -0.976562 C 12.488281 -1.464844 12.363281 -2.074219 12.527344 -2.726562 L 13.789062 -6.953125 C 13.910156 -7.402344 14.152344 -7.769531 14.519531 -8.011719 C 14.84375 -8.257812 15.253906 -8.417969 15.742188 -8.417969 L 23.753906 -8.417969 C 24.199219 -8.417969 24.605469 -8.257812 24.972656 -8.011719 C 25.296875 -7.769531 25.542969 -7.402344 25.703125 -6.953125 L 26.925781 -2.726562 C 27.085938 -2.074219 26.925781 -1.503906 26.519531 -1.015625 L 26.519531 -0.976562 C 26.355469 -0.730469 26.355469 -0.527344 26.476562 -0.324219 C 26.558594 -0.0820312 26.761719 0 27.046875 0 L 36.402344 0 C 36.605469 0 36.769531 -0.0390625 36.890625 -0.203125 C 37.011719 -0.367188 37.050781 -0.527344 37.011719 -0.730469 Z M 22.371094 -16.472656 L 17.125 -16.472656 C 16.960938 -16.472656 16.839844 -16.511719 16.757812 -16.636719 C 16.636719 -16.757812 16.59375 -16.917969 16.675781 -17.082031 L 19.320312 -26.152344 C 19.359375 -26.355469 19.480469 -26.476562 19.726562 -26.476562 C 19.96875 -26.476562 20.09375 -26.355469 20.171875 -26.152344 L 22.777344 -17.082031 C 22.816406 -16.917969 22.777344 -16.757812 22.695312 -16.636719 C 22.613281 -16.511719 22.492188 -16.472656 22.371094 -16.472656 Z M 22.371094 -16.472656 "/></g></g></g><g fill="#ffc1b2" fill-opacity="0.502"><g transform="translate(36.423467, 200.729341)"><g><path d="M 37.011719 -0.730469 C 37.011719 -0.894531 36.929688 -1.015625 36.808594 -1.097656 C 35.875 -1.871094 35.261719 -2.847656 34.9375 -4.066406 L 25.21875 -37.664062 C 25.011719 -38.3125 25.136719 -38.921875 25.625 -39.410156 C 25.746094 -39.613281 25.746094 -39.820312 25.664062 -40.0625 C 25.542969 -40.304688 25.339844 -40.429688 25.09375 -40.429688 L 14.355469 -40.429688 C 14.113281 -40.429688 13.910156 -40.304688 13.789062 -40.0625 C 13.664062 -39.820312 13.664062 -39.613281 13.828125 -39.410156 C 14.316406 -38.921875 14.4375 -38.3125 14.234375 -37.664062 L 4.554688 -4.027344 C 4.230469 -2.886719 3.578125 -1.910156 2.644531 -1.097656 C 2.523438 -0.976562 2.441406 -0.855469 2.441406 -0.730469 C 2.398438 -0.527344 2.441406 -0.367188 2.5625 -0.203125 C 2.683594 -0.0390625 2.847656 0 3.089844 0 L 12.527344 0 C 12.769531 0 12.972656 -0.0820312 13.054688 -0.324219 C 13.136719 -0.570312 13.136719 -0.773438 12.972656 -0.976562 C 12.488281 -1.464844 12.363281 -2.074219 12.527344 -2.726562 L 13.789062 -6.953125 C 13.910156 -7.402344 14.152344 -7.769531 14.519531 -8.011719 C 14.84375 -8.257812 15.253906 -8.417969 15.742188 -8.417969 L 23.753906 -8.417969 C 24.199219 -8.417969 24.605469 -8.257812 24.972656 -8.011719 C 25.296875 -7.769531 25.542969 -7.402344 25.703125 -6.953125 L 26.925781 -2.726562 C 27.085938 -2.074219 26.925781 -1.503906 26.519531 -1.015625 L 26.519531 -0.976562 C 26.355469 -0.730469 26.355469 -0.527344 26.476562 -0.324219 C 26.558594 -0.0820312 26.761719 0 27.046875 0 L 36.402344 0 C 36.605469 0 36.769531 -0.0390625 36.890625 -0.203125 C 37.011719 -0.367188 37.050781 -0.527344 37.011719 -0.730469 Z M 22.371094 -16.472656 L 17.125 -16.472656 C 16.960938 -16.472656 16.839844 -16.511719 16.757812 -16.636719 C 16.636719 -16.757812 16.59375 -16.917969 16.675781 -17.082031 L 19.320312 -26.152344 C 19.359375 -26.355469 19.480469 -26.476562 19.726562 -26.476562 C 19.96875 -26.476562 20.09375 -26.355469 20.171875 -26.152344 L 22.777344 -17.082031 C 22.816406 -16.917969 22.777344 -16.757812 22.695312 -16.636719 C 22.613281 -16.511719 22.492188 -16.472656 22.371094 -16.472656 Z M 22.371094 -16.472656 "/></g></g></g><g fill="#ffc1b2" fill-opacity="0.502"><g transform="translate(75.908281, 200.729341)"><g><path d="M 29.570312 -8.988281 L 29.082031 -8.582031 C 28.632812 -8.175781 28.144531 -8.011719 27.617188 -8.011719 L 15.007812 -8.011719 C 14.722656 -8.011719 14.480469 -8.09375 14.316406 -8.257812 C 14.113281 -8.417969 14.03125 -8.664062 14.03125 -8.988281 L 14.03125 -36.808594 C 14.03125 -37.742188 14.355469 -38.597656 15.007812 -39.332031 L 15.046875 -39.371094 C 15.171875 -39.574219 15.171875 -39.777344 15.089844 -40.023438 C 14.96875 -40.226562 14.765625 -40.347656 14.519531 -40.347656 L 5.53125 -40.347656 C 5.246094 -40.347656 5.042969 -40.226562 4.960938 -40.023438 C 4.839844 -39.777344 4.839844 -39.574219 5.003906 -39.371094 C 5.652344 -38.640625 5.980469 -37.785156 5.980469 -36.847656 L 5.980469 -0.894531 C 5.980469 -0.609375 6.058594 -0.367188 6.261719 -0.203125 C 6.425781 0 6.671875 0.0820312 6.953125 0.0820312 L 27.617188 0.0820312 C 28.144531 0.0820312 28.632812 0.285156 29.082031 0.652344 L 29.570312 1.058594 C 29.773438 1.21875 29.976562 1.21875 30.21875 1.097656 C 30.421875 1.015625 30.546875 0.8125 30.546875 0.527344 L 30.546875 -8.460938 C 30.546875 -8.703125 30.421875 -8.90625 30.21875 -9.027344 C 29.976562 -9.109375 29.773438 -9.109375 29.570312 -8.988281 Z M 29.570312 -8.988281 "/></g></g></g><g fill="#ffc1b2" fill-opacity="0.502"><g transform="translate(108.927505, 200.729341)"><g><path d="M 14.074219 -3.578125 L 14.074219 -36.847656 C 14.074219 -37.824219 14.398438 -38.679688 15.046875 -39.410156 C 15.171875 -39.613281 15.171875 -39.820312 15.089844 -40.0625 C 14.96875 -40.304688 14.765625 -40.429688 14.519531 -40.429688 L 5.53125 -40.429688 C 5.246094 -40.429688 5.042969 -40.304688 4.960938 -40.0625 C 4.839844 -39.820312 4.839844 -39.613281 5.003906 -39.410156 C 5.652344 -38.679688 6.019531 -37.824219 6.019531 -36.847656 L 6.019531 -3.578125 C 6.019531 -2.601562 5.652344 -1.75 5.003906 -1.015625 C 4.839844 -0.773438 4.839844 -0.570312 4.960938 -0.324219 C 5.042969 -0.0820312 5.246094 0 5.53125 0 L 14.519531 0 C 14.765625 0 14.96875 -0.0820312 15.089844 -0.324219 C 15.171875 -0.570312 15.171875 -0.773438 15.046875 -1.015625 C 14.722656 -1.34375 14.480469 -1.75 14.316406 -2.195312 C 14.152344 -2.644531 14.074219 -3.089844 14.074219 -3.578125 Z M 14.074219 -3.578125 "/></g></g></g><g fill="#ffc1b2" fill-opacity="0.502"><g transform="translate(129.015559, 200.729341)"><g><path d="M 44.046875 -3.417969 L 44.046875 -37.011719 C 44.046875 -37.90625 44.332031 -38.71875 44.984375 -39.410156 C 45.144531 -39.613281 45.1875 -39.820312 45.105469 -40.0625 C 44.984375 -40.304688 44.820312 -40.429688 44.578125 -40.429688 L 35.996094 -40.429688 L 35.953125 -40.386719 L 35.953125 -40.429688 L 34.855469 -40.429688 C 34.570312 -40.429688 34.367188 -40.304688 34.285156 -40.0625 C 34.164062 -39.820312 34.164062 -39.613281 34.328125 -39.410156 C 34.492188 -39.167969 34.449219 -39.003906 34.285156 -38.882812 L 25.910156 -31.15625 C 25.625 -30.910156 25.296875 -30.828125 24.972656 -30.828125 C 24.648438 -30.828125 24.363281 -30.910156 24.117188 -31.15625 L 15.617188 -38.964844 C 15.457031 -39.085938 15.457031 -39.207031 15.617188 -39.371094 C 15.78125 -39.574219 15.820312 -39.820312 15.742188 -40.0625 C 15.617188 -40.304688 15.414062 -40.429688 15.128906 -40.429688 L 5.53125 -40.429688 C 5.246094 -40.429688 5.042969 -40.304688 4.960938 -40.0625 C 4.839844 -39.820312 4.839844 -39.613281 5.003906 -39.410156 L 5.042969 -39.371094 C 5.652344 -38.679688 5.980469 -37.867188 5.980469 -36.972656 L 5.980469 -3.457031 C 5.980469 -2.523438 5.652344 -1.707031 5.042969 -1.058594 L 5.003906 -1.015625 C 4.839844 -0.773438 4.839844 -0.570312 4.960938 -0.324219 C 5.042969 -0.0820312 5.246094 0 5.53125 0 L 14.519531 0 C 14.765625 0 14.96875 -0.0820312 15.089844 -0.324219 C 15.171875 -0.570312 15.171875 -0.773438 15.046875 -1.015625 L 14.96875 -1.097656 C 14.316406 -1.75 14.03125 -2.5625 14.03125 -3.496094 L 14.03125 -28.144531 C 14.03125 -28.390625 14.113281 -28.550781 14.355469 -28.632812 C 14.601562 -28.714844 14.804688 -28.714844 15.007812 -28.550781 L 24.117188 -20.09375 C 24.363281 -19.847656 24.648438 -19.726562 25.011719 -19.726562 C 25.339844 -19.726562 25.664062 -19.847656 25.910156 -20.09375 L 35.019531 -28.550781 C 35.183594 -28.714844 35.386719 -28.714844 35.628906 -28.632812 C 35.875 -28.550781 35.996094 -28.390625 35.996094 -28.144531 L 35.996094 -3.539062 C 35.996094 -2.644531 35.667969 -1.832031 35.019531 -1.140625 L 34.9375 -1.015625 C 34.773438 -0.773438 34.773438 -0.570312 34.898438 -0.324219 C 34.976562 -0.0820312 35.183594 0 35.464844 0 L 44.578125 0 C 44.820312 0 44.984375 -0.0820312 45.105469 -0.324219 C 45.1875 -0.570312 45.144531 -0.773438 44.984375 -1.015625 C 44.332031 -1.667969 44.046875 -2.480469 44.046875 -3.417969 Z M 44.046875 -3.417969 "/></g></g></g><g fill="#ffc1b2" fill-opacity="0.502"><g transform="translate(179.032371, 200.729341)"><g><path d="M 29.609375 -40.714844 C 28.917969 -40.0625 28.105469 -39.777344 27.210938 -39.777344 L 5.53125 -39.777344 C 5.246094 -39.777344 5.042969 -39.65625 4.960938 -39.410156 C 4.839844 -39.167969 4.839844 -38.964844 5.003906 -38.761719 L 5.125 -38.640625 C 5.777344 -37.90625 6.101562 -37.050781 6.101562 -36.078125 L 6.101562 -3.050781 C 6.101562 -2.5625 6.019531 -2.113281 5.855469 -1.667969 C 5.695312 -1.21875 5.449219 -0.8125 5.125 -0.488281 L 5.003906 -0.367188 C 4.839844 -0.121094 4.839844 0.0820312 4.960938 0.324219 C 5.042969 0.570312 5.246094 0.652344 5.53125 0.652344 L 27.210938 0.652344 C 28.105469 0.652344 28.917969 0.976562 29.609375 1.585938 C 29.8125 1.789062 30.058594 1.832031 30.300781 1.707031 C 30.546875 1.625 30.707031 1.421875 30.707031 1.097656 L 30.707031 -7.972656 C 30.707031 -8.214844 30.585938 -8.417969 30.339844 -8.542969 C 30.097656 -8.621094 29.855469 -8.582031 29.691406 -8.417969 C 28.957031 -7.726562 28.105469 -7.402344 27.128906 -7.402344 L 15.171875 -7.402344 C 14.886719 -7.402344 14.640625 -7.484375 14.4375 -7.6875 C 14.234375 -7.851562 14.152344 -8.09375 14.152344 -8.417969 L 14.152344 -14.519531 C 14.152344 -14.804688 14.234375 -15.046875 14.4375 -15.253906 C 14.640625 -15.414062 14.886719 -15.535156 15.171875 -15.535156 L 18.75 -15.535156 C 19.726562 -15.535156 20.582031 -15.171875 21.3125 -14.519531 C 21.515625 -14.355469 21.71875 -14.355469 21.964844 -14.480469 C 22.207031 -14.601562 22.328125 -14.804688 22.328125 -15.046875 L 22.328125 -24.078125 C 22.328125 -24.320312 22.207031 -24.484375 21.964844 -24.605469 C 21.71875 -24.730469 21.515625 -24.730469 21.3125 -24.605469 C 20.582031 -23.914062 19.726562 -23.589844 18.75 -23.589844 L 15.171875 -23.589844 C 14.886719 -23.589844 14.640625 -23.671875 14.4375 -23.875 C 14.234375 -24.039062 14.152344 -24.28125 14.152344 -24.605469 L 14.152344 -30.707031 C 14.152344 -30.992188 14.234375 -31.238281 14.4375 -31.441406 C 14.640625 -31.601562 14.886719 -31.722656 15.171875 -31.722656 L 27.128906 -31.722656 C 28.105469 -31.722656 28.957031 -31.359375 29.691406 -30.707031 C 29.855469 -30.503906 30.097656 -30.464844 30.339844 -30.585938 C 30.585938 -30.667969 30.707031 -30.871094 30.707031 -31.15625 L 30.707031 -40.265625 C 30.707031 -40.511719 30.546875 -40.714844 30.300781 -40.835938 C 30.058594 -40.917969 29.8125 -40.875 29.609375 -40.714844 Z M 29.609375 -40.714844 "/></g></g></g><g fill="#ffc1b2" fill-opacity="0.502"><g transform="translate(214.613435, 200.729341)"><g><path d="M 37.90625 -1.015625 L 37.867188 -1.058594 C 37.214844 -1.707031 36.929688 -2.523438 36.929688 -3.496094 L 36.929688 -36.929688 C 36.929688 -37.867188 37.214844 -38.679688 37.867188 -39.371094 L 37.90625 -39.410156 C 38.027344 -39.613281 38.027344 -39.820312 37.949219 -40.0625 C 37.824219 -40.304688 37.621094 -40.429688 37.378906 -40.429688 L 28.390625 -40.429688 C 28.105469 -40.429688 27.902344 -40.304688 27.820312 -40.0625 C 27.699219 -39.820312 27.699219 -39.613281 27.859375 -39.410156 L 27.902344 -39.371094 C 28.511719 -38.679688 28.835938 -37.867188 28.835938 -36.929688 L 28.835938 -16.714844 C 28.835938 -16.554688 28.753906 -16.433594 28.59375 -16.390625 C 28.429688 -16.351562 28.308594 -16.390625 28.226562 -16.554688 L 15.496094 -37.949219 C 15.171875 -38.433594 15.253906 -38.921875 15.660156 -39.410156 C 15.78125 -39.613281 15.78125 -39.820312 15.699219 -40.0625 C 15.578125 -40.304688 15.375 -40.429688 15.128906 -40.429688 L 14.03125 -40.429688 L 14.03125 -40.386719 L 14.03125 -40.429688 L 5.53125 -40.429688 C 5.246094 -40.429688 5.042969 -40.304688 4.960938 -40.0625 C 4.839844 -39.820312 4.839844 -39.613281 5.003906 -39.410156 C 5.652344 -38.679688 5.980469 -37.867188 5.980469 -36.972656 L 5.980469 -3.457031 C 5.980469 -2.523438 5.652344 -1.707031 5.003906 -1.015625 C 4.839844 -0.773438 4.839844 -0.570312 4.960938 -0.324219 C 5.042969 -0.0820312 5.246094 0 5.53125 0 L 14.519531 0 C 14.765625 0 14.96875 -0.0820312 15.089844 -0.324219 C 15.171875 -0.570312 15.171875 -0.773438 15.046875 -1.015625 L 14.96875 -1.097656 C 14.316406 -1.75 14.03125 -2.5625 14.03125 -3.539062 L 14.03125 -23.710938 C 14.03125 -23.875 14.074219 -23.957031 14.234375 -23.996094 C 14.398438 -24.039062 14.519531 -23.996094 14.640625 -23.875 L 27.414062 -2.441406 C 27.65625 -1.910156 27.617188 -1.421875 27.25 -1.015625 C 27.085938 -0.773438 27.085938 -0.570312 27.210938 -0.324219 C 27.292969 -0.0820312 27.496094 0 27.78125 0 L 37.378906 0 C 37.621094 0 37.824219 -0.0820312 37.949219 -0.324219 C 38.027344 -0.570312 38.027344 -0.773438 37.90625 -1.015625 Z M 37.90625 -1.015625 "/></g></g></g><g fill="#ffc1b2" fill-opacity="0.502"><g transform="translate(257.514036, 200.729341)"><g><path d="M 31.847656 -41.445312 L 31.804688 -41.40625 C 31.074219 -40.753906 30.261719 -40.429688 29.324219 -40.429688 L 8.417969 -40.429688 C 7.441406 -40.429688 6.628906 -40.753906 5.898438 -41.40625 L 5.898438 -41.445312 C 5.652344 -41.566406 5.449219 -41.566406 5.207031 -41.445312 C 4.960938 -41.324219 4.878906 -41.160156 4.878906 -40.917969 L 4.878906 -31.886719 C 4.878906 -31.601562 4.960938 -31.398438 5.207031 -31.316406 C 5.449219 -31.195312 5.652344 -31.195312 5.898438 -31.359375 C 6.628906 -32.007812 7.441406 -32.375 8.417969 -32.375 L 14.03125 -32.375 C 14.234375 -32.375 14.4375 -32.292969 14.601562 -32.132812 C 14.765625 -31.96875 14.84375 -31.765625 14.84375 -31.5625 L 14.84375 -3.578125 C 14.84375 -2.601562 14.519531 -1.75 13.871094 -1.058594 L 13.828125 -1.015625 C 13.664062 -0.773438 13.664062 -0.570312 13.789062 -0.324219 C 13.871094 -0.0820312 14.074219 0 14.355469 0 L 23.386719 0 C 23.628906 0 23.792969 -0.0820312 23.914062 -0.324219 C 24.039062 -0.570312 24.039062 -0.773438 23.914062 -1.015625 C 23.222656 -1.75 22.898438 -2.5625 22.898438 -3.539062 L 22.898438 -31.5625 C 22.898438 -31.765625 22.980469 -31.96875 23.144531 -32.132812 C 23.304688 -32.292969 23.46875 -32.375 23.710938 -32.375 L 29.324219 -32.375 C 30.300781 -32.375 31.113281 -32.007812 31.804688 -31.359375 L 31.847656 -31.359375 C 32.050781 -31.195312 32.253906 -31.195312 32.496094 -31.316406 C 32.742188 -31.398438 32.863281 -31.601562 32.863281 -31.886719 L 32.863281 -40.917969 C 32.863281 -41.160156 32.742188 -41.324219 32.496094 -41.445312 C 32.253906 -41.566406 32.050781 -41.566406 31.847656 -41.445312 Z M 31.847656 -41.445312 "/></g></g></g><g fill="#ffc1b2" fill-opacity="0.502"><g transform="translate(295.250309, 200.729341)"><g><path d="M 37.011719 -0.730469 C 37.011719 -0.894531 36.929688 -1.015625 36.808594 -1.097656 C 35.875 -1.871094 35.261719 -2.847656 34.9375 -4.066406 L 25.21875 -37.664062 C 25.011719 -38.3125 25.136719 -38.921875 25.625 -39.410156 C 25.746094 -39.613281 25.746094 -39.820312 25.664062 -40.0625 C 25.542969 -40.304688 25.339844 -40.429688 25.09375 -40.429688 L 14.355469 -40.429688 C 14.113281 -40.429688 13.910156 -40.304688 13.789062 -40.0625 C 13.664062 -39.820312 13.664062 -39.613281 13.828125 -39.410156 C 14.316406 -38.921875 14.4375 -38.3125 14.234375 -37.664062 L 4.554688 -4.027344 C 4.230469 -2.886719 3.578125 -1.910156 2.644531 -1.097656 C 2.523438 -0.976562 2.441406 -0.855469 2.441406 -0.730469 C 2.398438 -0.527344 2.441406 -0.367188 2.5625 -0.203125 C 2.683594 -0.0390625 2.847656 0 3.089844 0 L 12.527344 0 C 12.769531 0 12.972656 -0.0820312 13.054688 -0.324219 C 13.136719 -0.570312 13.136719 -0.773438 12.972656 -0.976562 C 12.488281 -1.464844 12.363281 -2.074219 12.527344 -2.726562 L 13.789062 -6.953125 C 13.910156 -7.402344 14.152344 -7.769531 14.519531 -8.011719 C 14.84375 -8.257812 15.253906 -8.417969 15.742188 -8.417969 L 23.753906 -8.417969 C 24.199219 -8.417969 24.605469 -8.257812 24.972656 -8.011719 C 25.296875 -7.769531 25.542969 -7.402344 25.703125 -6.953125 L 26.925781 -2.726562 C 27.085938 -2.074219 26.925781 -1.503906 26.519531 -1.015625 L 26.519531 -0.976562 C 26.355469 -0.730469 26.355469 -0.527344 26.476562 -0.324219 C 26.558594 -0.0820312 26.761719 0 27.046875 0 L 36.402344 0 C 36.605469 0 36.769531 -0.0390625 36.890625 -0.203125 C 37.011719 -0.367188 37.050781 -0.527344 37.011719 -0.730469 Z M 22.371094 -16.472656 L 17.125 -16.472656 C 16.960938 -16.472656 16.839844 -16.511719 16.757812 -16.636719 C 16.636719 -16.757812 16.59375 -16.917969 16.675781 -17.082031 L 19.320312 -26.152344 C 19.359375 -26.355469 19.480469 -26.476562 19.726562 -26.476562 C 19.96875 -26.476562 20.09375 -26.355469 20.171875 -26.152344 L 22.777344 -17.082031 C 22.816406 -16.917969 22.777344 -16.757812 22.695312 -16.636719 C 22.613281 -16.511719 22.492188 -16.472656 22.371094 -16.472656 Z M 22.371094 -16.472656 "/></g></g></g><g fill="#fff2e7" fill-opacity="1"><g transform="translate(37.500002, 201.186301)"><g><path d="M 37.011719 -0.730469 C 37.011719 -0.894531 36.929688 -1.015625 36.808594 -1.097656 C 35.875 -1.871094 35.261719 -2.847656 34.9375 -4.066406 L 25.21875 -37.664062 C 25.011719 -38.3125 25.136719 -38.921875 25.625 -39.410156 C 25.746094 -39.613281 25.746094 -39.820312 25.664062 -40.0625 C 25.542969 -40.304688 25.339844 -40.429688 25.09375 -40.429688 L 14.355469 -40.429688 C 14.113281 -40.429688 13.910156 -40.304688 13.789062 -40.0625 C 13.664062 -39.820312 13.664062 -39.613281 13.828125 -39.410156 C 14.316406 -38.921875 14.4375 -38.3125 14.234375 -37.664062 L 4.554688 -4.027344 C 4.230469 -2.886719 3.578125 -1.910156 2.644531 -1.097656 C 2.523438 -0.976562 2.441406 -0.855469 2.441406 -0.730469 C 2.398438 -0.527344 2.441406 -0.367188 2.5625 -0.203125 C 2.683594 -0.0390625 2.847656 0 3.089844 0 L 12.527344 0 C 12.769531 0 12.972656 -0.0820312 13.054688 -0.324219 C 13.136719 -0.570312 13.136719 -0.773438 12.972656 -0.976562 C 12.488281 -1.464844 12.363281 -2.074219 12.527344 -2.726562 L 13.789062 -6.953125 C 13.910156 -7.402344 14.152344 -7.769531 14.519531 -8.011719 C 14.84375 -8.257812 15.253906 -8.417969 15.742188 -8.417969 L 23.753906 -8.417969 C 24.199219 -8.417969 24.605469 -8.257812 24.972656 -8.011719 C 25.296875 -7.769531 25.542969 -7.402344 25.703125 -6.953125 L 26.925781 -2.726562 C 27.085938 -2.074219 26.925781 -1.503906 26.519531 -1.015625 L 26.519531 -0.976562 C 26.355469 -0.730469 26.355469 -0.527344 26.476562 -0.324219 C 26.558594 -0.0820312 26.761719 0 27.046875 0 L 36.402344 0 C 36.605469 0 36.769531 -0.0390625 36.890625 -0.203125 C 37.011719 -0.367188 37.050781 -0.527344 37.011719 -0.730469 Z M 22.371094 -16.472656 L 17.125 -16.472656 C 16.960938 -16.472656 16.839844 -16.511719 16.757812 -16.636719 C 16.636719 -16.757812 16.59375 -16.917969 16.675781 -17.082031 L 19.320312 -26.152344 C 19.359375 -26.355469 19.480469 -26.476562 19.726562 -26.476562 C 19.96875 -26.476562 20.09375 -26.355469 20.171875 -26.152344 L 22.777344 -17.082031 C 22.816406 -16.917969 22.777344 -16.757812 22.695312 -16.636719 C 22.613281 -16.511719 22.492188 -16.472656 22.371094 -16.472656 Z M 22.371094 -16.472656 "/></g></g></g><g fill="#fff2e7" fill-opacity="1"><g transform="translate(76.984817, 201.186301)"><g><path d="M 29.570312 -8.988281 L 29.082031 -8.582031 C 28.632812 -8.175781 28.144531 -8.011719 27.617188 -8.011719 L 15.007812 -8.011719 C 14.722656 -8.011719 14.480469 -8.09375 14.316406 -8.257812 C 14.113281 -8.417969 14.03125 -8.664062 14.03125 -8.988281 L 14.03125 -36.808594 C 14.03125 -37.742188 14.355469 -38.597656 15.007812 -39.332031 L 15.046875 -39.371094 C 15.171875 -39.574219 15.171875 -39.777344 15.089844 -40.023438 C 14.96875 -40.226562 14.765625 -40.347656 14.519531 -40.347656 L 5.53125 -40.347656 C 5.246094 -40.347656 5.042969 -40.226562 4.960938 -40.023438 C 4.839844 -39.777344 4.839844 -39.574219 5.003906 -39.371094 C 5.652344 -38.640625 5.980469 -37.785156 5.980469 -36.847656 L 5.980469 -0.894531 C 5.980469 -0.609375 6.058594 -0.367188 6.261719 -0.203125 C 6.425781 0 6.671875 0.0820312 6.953125 0.0820312 L 27.617188 0.0820312 C 28.144531 0.0820312 28.632812 0.285156 29.082031 0.652344 L 29.570312 1.058594 C 29.773438 1.21875 29.976562 1.21875 30.21875 1.097656 C 30.421875 1.015625 30.546875 0.8125 30.546875 0.527344 L 30.546875 -8.460938 C 30.546875 -8.703125 30.421875 -8.90625 30.21875 -9.027344 C 29.976562 -9.109375 29.773438 -9.109375 29.570312 -8.988281 Z M 29.570312 -8.988281 "/></g></g></g><g fill="#fff2e7" fill-opacity="1"><g transform="translate(110.004041, 201.186301)"><g><path d="M 14.074219 -3.578125 L 14.074219 -36.847656 C 14.074219 -37.824219 14.398438 -38.679688 15.046875 -39.410156 C 15.171875 -39.613281 15.171875 -39.820312 15.089844 -40.0625 C 14.96875 -40.304688 14.765625 -40.429688 14.519531 -40.429688 L 5.53125 -40.429688 C 5.246094 -40.429688 5.042969 -40.304688 4.960938 -40.0625 C 4.839844 -39.820312 4.839844 -39.613281 5.003906 -39.410156 C 5.652344 -38.679688 6.019531 -37.824219 6.019531 -36.847656 L 6.019531 -3.578125 C 6.019531 -2.601562 5.652344 -1.75 5.003906 -1.015625 C 4.839844 -0.773438 4.839844 -0.570312 4.960938 -0.324219 C 5.042969 -0.0820312 5.246094 0 5.53125 0 L 14.519531 0 C 14.765625 0 14.96875 -0.0820312 15.089844 -0.324219 C 15.171875 -0.570312 15.171875 -0.773438 15.046875 -1.015625 C 14.722656 -1.34375 14.480469 -1.75 14.316406 -2.195312 C 14.152344 -2.644531 14.074219 -3.089844 14.074219 -3.578125 Z M 14.074219 -3.578125 "/></g></g></g><g fill="#fff2e7" fill-opacity="1"><g transform="translate(130.092094, 201.186301)"><g><path d="M 44.046875 -3.417969 L 44.046875 -37.011719 C 44.046875 -37.90625 44.332031 -38.71875 44.984375 -39.410156 C 45.144531 -39.613281 45.1875 -39.820312 45.105469 -40.0625 C 44.984375 -40.304688 44.820312 -40.429688 44.578125 -40.429688 L 35.996094 -40.429688 L 35.953125 -40.386719 L 35.953125 -40.429688 L 34.855469 -40.429688 C 34.570312 -40.429688 34.367188 -40.304688 34.285156 -40.0625 C 34.164062 -39.820312 34.164062 -39.613281 34.328125 -39.410156 C 34.492188 -39.167969 34.449219 -39.003906 34.285156 -38.882812 L 25.910156 -31.15625 C 25.625 -30.910156 25.296875 -30.828125 24.972656 -30.828125 C 24.648438 -30.828125 24.363281 -30.910156 24.117188 -31.15625 L 15.617188 -38.964844 C 15.457031 -39.085938 15.457031 -39.207031 15.617188 -39.371094 C 15.78125 -39.574219 15.820312 -39.820312 15.742188 -40.0625 C 15.617188 -40.304688 15.414062 -40.429688 15.128906 -40.429688 L 5.53125 -40.429688 C 5.246094 -40.429688 5.042969 -40.304688 4.960938 -40.0625 C 4.839844 -39.820312 4.839844 -39.613281 5.003906 -39.410156 L 5.042969 -39.371094 C 5.652344 -38.679688 5.980469 -37.867188 5.980469 -36.972656 L 5.980469 -3.457031 C 5.980469 -2.523438 5.652344 -1.707031 5.042969 -1.058594 L 5.003906 -1.015625 C 4.839844 -0.773438 4.839844 -0.570312 4.960938 -0.324219 C 5.042969 -0.0820312 5.246094 0 5.53125 0 L 14.519531 0 C 14.765625 0 14.96875 -0.0820312 15.089844 -0.324219 C 15.171875 -0.570312 15.171875 -0.773438 15.046875 -1.015625 L 14.96875 -1.097656 C 14.316406 -1.75 14.03125 -2.5625 14.03125 -3.496094 L 14.03125 -28.144531 C 14.03125 -28.390625 14.113281 -28.550781 14.355469 -28.632812 C 14.601562 -28.714844 14.804688 -28.714844 15.007812 -28.550781 L 24.117188 -20.09375 C 24.363281 -19.847656 24.648438 -19.726562 25.011719 -19.726562 C 25.339844 -19.726562 25.664062 -19.847656 25.910156 -20.09375 L 35.019531 -28.550781 C 35.183594 -28.714844 35.386719 -28.714844 35.628906 -28.632812 C 35.875 -28.550781 35.996094 -28.390625 35.996094 -28.144531 L 35.996094 -3.539062 C 35.996094 -2.644531 35.667969 -1.832031 35.019531 -1.140625 L 34.9375 -1.015625 C 34.773438 -0.773438 34.773438 -0.570312 34.898438 -0.324219 C 34.976562 -0.0820312 35.183594 0 35.464844 0 L 44.578125 0 C 44.820312 0 44.984375 -0.0820312 45.105469 -0.324219 C 45.1875 -0.570312 45.144531 -0.773438 44.984375 -1.015625 C 44.332031 -1.667969 44.046875 -2.480469 44.046875 -3.417969 Z M 44.046875 -3.417969 "/></g></g></g><g fill="#fff2e7" fill-opacity="1"><g transform="translate(180.108906, 201.186301)"><g><path d="M 29.609375 -40.714844 C 28.917969 -40.0625 28.105469 -39.777344 27.210938 -39.777344 L 5.53125 -39.777344 C 5.246094 -39.777344 5.042969 -39.65625 4.960938 -39.410156 C 4.839844 -39.167969 4.839844 -38.964844 5.003906 -38.761719 L 5.125 -38.640625 C 5.777344 -37.90625 6.101562 -37.050781 6.101562 -36.078125 L 6.101562 -3.050781 C 6.101562 -2.5625 6.019531 -2.113281 5.855469 -1.667969 C 5.695312 -1.21875 5.449219 -0.8125 5.125 -0.488281 L 5.003906 -0.367188 C 4.839844 -0.121094 4.839844 0.0820312 4.960938 0.324219 C 5.042969 0.570312 5.246094 0.652344 5.53125 0.652344 L 27.210938 0.652344 C 28.105469 0.652344 28.917969 0.976562 29.609375 1.585938 C 29.8125 1.789062 30.058594 1.832031 30.300781 1.707031 C 30.546875 1.625 30.707031 1.421875 30.707031 1.097656 L 30.707031 -7.972656 C 30.707031 -8.214844 30.585938 -8.417969 30.339844 -8.542969 C 30.097656 -8.621094 29.855469 -8.582031 29.691406 -8.417969 C 28.957031 -7.726562 28.105469 -7.402344 27.128906 -7.402344 L 15.171875 -7.402344 C 14.886719 -7.402344 14.640625 -7.484375 14.4375 -7.6875 C 14.234375 -7.851562 14.152344 -8.09375 14.152344 -8.417969 L 14.152344 -14.519531 C 14.152344 -14.804688 14.234375 -15.046875 14.4375 -15.253906 C 14.640625 -15.414062 14.886719 -15.535156 15.171875 -15.535156 L 18.75 -15.535156 C 19.726562 -15.535156 20.582031 -15.171875 21.3125 -14.519531 C 21.515625 -14.355469 21.71875 -14.355469 21.964844 -14.480469 C 22.207031 -14.601562 22.328125 -14.804688 22.328125 -15.046875 L 22.328125 -24.078125 C 22.328125 -24.320312 22.207031 -24.484375 21.964844 -24.605469 C 21.71875 -24.730469 21.515625 -24.730469 21.3125 -24.605469 C 20.582031 -23.914062 19.726562 -23.589844 18.75 -23.589844 L 15.171875 -23.589844 C 14.886719 -23.589844 14.640625 -23.671875 14.4375 -23.875 C 14.234375 -24.039062 14.152344 -24.28125 14.152344 -24.605469 L 14.152344 -30.707031 C 14.152344 -30.992188 14.234375 -31.238281 14.4375 -31.441406 C 14.640625 -31.601562 14.886719 -31.722656 15.171875 -31.722656 L 27.128906 -31.722656 C 28.105469 -31.722656 28.957031 -31.359375 29.691406 -30.707031 C 29.855469 -30.503906 30.097656 -30.464844 30.339844 -30.585938 C 30.585938 -30.667969 30.707031 -30.871094 30.707031 -31.15625 L 30.707031 -40.265625 C 30.707031 -40.511719 30.546875 -40.714844 30.300781 -40.835938 C 30.058594 -40.917969 29.8125 -40.875 29.609375 -40.714844 Z M 29.609375 -40.714844 "/></g></g></g><g fill="#fff2e7" fill-opacity="1"><g transform="translate(215.68997, 201.186301)"><g><path d="M 37.90625 -1.015625 L 37.867188 -1.058594 C 37.214844 -1.707031 36.929688 -2.523438 36.929688 -3.496094 L 36.929688 -36.929688 C 36.929688 -37.867188 37.214844 -38.679688 37.867188 -39.371094 L 37.90625 -39.410156 C 38.027344 -39.613281 38.027344 -39.820312 37.949219 -40.0625 C 37.824219 -40.304688 37.621094 -40.429688 37.378906 -40.429688 L 28.390625 -40.429688 C 28.105469 -40.429688 27.902344 -40.304688 27.820312 -40.0625 C 27.699219 -39.820312 27.699219 -39.613281 27.859375 -39.410156 L 27.902344 -39.371094 C 28.511719 -38.679688 28.835938 -37.867188 28.835938 -36.929688 L 28.835938 -16.714844 C 28.835938 -16.554688 28.753906 -16.433594 28.59375 -16.390625 C 28.429688 -16.351562 28.308594 -16.390625 28.226562 -16.554688 L 15.496094 -37.949219 C 15.171875 -38.433594 15.253906 -38.921875 15.660156 -39.410156 C 15.78125 -39.613281 15.78125 -39.820312 15.699219 -40.0625 C 15.578125 -40.304688 15.375 -40.429688 15.128906 -40.429688 L 14.03125 -40.429688 L 14.03125 -40.386719 L 14.03125 -40.429688 L 5.53125 -40.429688 C 5.246094 -40.429688 5.042969 -40.304688 4.960938 -40.0625 C 4.839844 -39.820312 4.839844 -39.613281 5.003906 -39.410156 C 5.652344 -38.679688 5.980469 -37.867188 5.980469 -36.972656 L 5.980469 -3.457031 C 5.980469 -2.523438 5.652344 -1.707031 5.003906 -1.015625 C 4.839844 -0.773438 4.839844 -0.570312 4.960938 -0.324219 C 5.042969 -0.0820312 5.246094 0 5.53125 0 L 14.519531 0 C 14.765625 0 14.96875 -0.0820312 15.089844 -0.324219 C 15.171875 -0.570312 15.171875 -0.773438 15.046875 -1.015625 L 14.96875 -1.097656 C 14.316406 -1.75 14.03125 -2.5625 14.03125 -3.539062 L 14.03125 -23.710938 C 14.03125 -23.875 14.074219 -23.957031 14.234375 -23.996094 C 14.398438 -24.039062 14.519531 -23.996094 14.640625 -23.875 L 27.414062 -2.441406 C 27.65625 -1.910156 27.617188 -1.421875 27.25 -1.015625 C 27.085938 -0.773438 27.085938 -0.570312 27.210938 -0.324219 C 27.292969 -0.0820312 27.496094 0 27.78125 0 L 37.378906 0 C 37.621094 0 37.824219 -0.0820312 37.949219 -0.324219 C 38.027344 -0.570312 38.027344 -0.773438 37.90625 -1.015625 Z M 37.90625 -1.015625 "/></g></g></g><g fill="#fff2e7" fill-opacity="1"><g transform="translate(258.590572, 201.186301)"><g><path d="M 31.847656 -41.445312 L 31.804688 -41.40625 C 31.074219 -40.753906 30.261719 -40.429688 29.324219 -40.429688 L 8.417969 -40.429688 C 7.441406 -40.429688 6.628906 -40.753906 5.898438 -41.40625 L 5.898438 -41.445312 C 5.652344 -41.566406 5.449219 -41.566406 5.207031 -41.445312 C 4.960938 -41.324219 4.878906 -41.160156 4.878906 -40.917969 L 4.878906 -31.886719 C 4.878906 -31.601562 4.960938 -31.398438 5.207031 -31.316406 C 5.449219 -31.195312 5.652344 -31.195312 5.898438 -31.359375 C 6.628906 -32.007812 7.441406 -32.375 8.417969 -32.375 L 14.03125 -32.375 C 14.234375 -32.375 14.4375 -32.292969 14.601562 -32.132812 C 14.765625 -31.96875 14.84375 -31.765625 14.84375 -31.5625 L 14.84375 -3.578125 C 14.84375 -2.601562 14.519531 -1.75 13.871094 -1.058594 L 13.828125 -1.015625 C 13.664062 -0.773438 13.664062 -0.570312 13.789062 -0.324219 C 13.871094 -0.0820312 14.074219 0 14.355469 0 L 23.386719 0 C 23.628906 0 23.792969 -0.0820312 23.914062 -0.324219 C 24.039062 -0.570312 24.039062 -0.773438 23.914062 -1.015625 C 23.222656 -1.75 22.898438 -2.5625 22.898438 -3.539062 L 22.898438 -31.5625 C 22.898438 -31.765625 22.980469 -31.96875 23.144531 -32.132812 C 23.304688 -32.292969 23.46875 -32.375 23.710938 -32.375 L 29.324219 -32.375 C 30.300781 -32.375 31.113281 -32.007812 31.804688 -31.359375 L 31.847656 -31.359375 C 32.050781 -31.195312 32.253906 -31.195312 32.496094 -31.316406 C 32.742188 -31.398438 32.863281 -31.601562 32.863281 -31.886719 L 32.863281 -40.917969 C 32.863281 -41.160156 32.742188 -41.324219 32.496094 -41.445312 C 32.253906 -41.566406 32.050781 -41.566406 31.847656 -41.445312 Z M 31.847656 -41.445312 "/></g></g></g><g fill="#fff2e7" fill-opacity="1"><g transform="translate(296.326844, 201.186301)"><g><path d="M 37.011719 -0.730469 C 37.011719 -0.894531 36.929688 -1.015625 36.808594 -1.097656 C 35.875 -1.871094 35.261719 -2.847656 34.9375 -4.066406 L 25.21875 -37.664062 C 25.011719 -38.3125 25.136719 -38.921875 25.625 -39.410156 C 25.746094 -39.613281 25.746094 -39.820312 25.664062 -40.0625 C 25.542969 -40.304688 25.339844 -40.429688 25.09375 -40.429688 L 14.355469 -40.429688 C 14.113281 -40.429688 13.910156 -40.304688 13.789062 -40.0625 C 13.664062 -39.820312 13.664062 -39.613281 13.828125 -39.410156 C 14.316406 -38.921875 14.4375 -38.3125 14.234375 -37.664062 L 4.554688 -4.027344 C 4.230469 -2.886719 3.578125 -1.910156 2.644531 -1.097656 C 2.523438 -0.976562 2.441406 -0.855469 2.441406 -0.730469 C 2.398438 -0.527344 2.441406 -0.367188 2.5625 -0.203125 C 2.683594 -0.0390625 2.847656 0 3.089844 0 L 12.527344 0 C 12.769531 0 12.972656 -0.0820312 13.054688 -0.324219 C 13.136719 -0.570312 13.136719 -0.773438 12.972656 -0.976562 C 12.488281 -1.464844 12.363281 -2.074219 12.527344 -2.726562 L 13.789062 -6.953125 C 13.910156 -7.402344 14.152344 -7.769531 14.519531 -8.011719 C 14.84375 -8.257812 15.253906 -8.417969 15.742188 -8.417969 L 23.753906 -8.417969 C 24.199219 -8.417969 24.605469 -8.257812 24.972656 -8.011719 C 25.296875 -7.769531 25.542969 -7.402344 25.703125 -6.953125 L 26.925781 -2.726562 C 27.085938 -2.074219 26.925781 -1.503906 26.519531 -1.015625 L 26.519531 -0.976562 C 26.355469 -0.730469 26.355469 -0.527344 26.476562 -0.324219 C 26.558594 -0.0820312 26.761719 0 27.046875 0 L 36.402344 0 C 36.605469 0 36.769531 -0.0390625 36.890625 -0.203125 C 37.011719 -0.367188 37.050781 -0.527344 37.011719 -0.730469 Z M 22.371094 -16.472656 L 17.125 -16.472656 C 16.960938 -16.472656 16.839844 -16.511719 16.757812 -16.636719 C 16.636719 -16.757812 16.59375 -16.917969 16.675781 -17.082031 L 19.320312 -26.152344 C 19.359375 -26.355469 19.480469 -26.476562 19.726562 -26.476562 C 19.96875 -26.476562 20.09375 -26.355469 20.171875 -26.152344 L 22.777344 -17.082031 C 22.816406 -16.917969 22.777344 -16.757812 22.695312 -16.636719 C 22.613281 -16.511719 22.492188 -16.472656 22.371094 -16.472656 Z M 22.371094 -16.472656 "/></g></g></g><g fill="#ffc1b2" fill-opacity="0.302"><g transform="translate(333.647696, 200.272369)"><g/></g></g><g fill="#ffc1b2" fill-opacity="0.502"><g transform="translate(334.724232, 200.729341)"><g/></g></g><g fill="#fff2e7" fill-opacity="1"><g transform="translate(335.800767, 201.186301)"><g/></g></g><g fill="#ffc1b2" fill-opacity="0.302"><g transform="translate(87.026615, 272.272365)"><g><path d="M 33.269531 -1.015625 L 32.660156 -1.503906 C 32.007812 -2.035156 31.441406 -2.683594 30.992188 -3.417969 L 25.949219 -11.46875 C 25.785156 -11.714844 25.703125 -12 25.785156 -12.324219 C 25.867188 -12.609375 26.03125 -12.851562 26.316406 -13.054688 C 27.332031 -13.789062 28.226562 -14.601562 28.957031 -15.535156 C 30.058594 -16.878906 30.910156 -18.425781 31.480469 -20.132812 C 32.050781 -21.839844 32.375 -23.628906 32.375 -25.5 C 32.375 -27.371094 32.050781 -29.203125 31.480469 -30.910156 C 30.910156 -32.621094 30.058594 -34.164062 28.957031 -35.546875 C 27.65625 -37.09375 26.070312 -38.3125 24.28125 -39.167969 C 22.453125 -39.980469 20.457031 -40.429688 18.34375 -40.429688 L 5.492188 -40.429688 C 5.207031 -40.429688 5.003906 -40.304688 4.921875 -40.0625 C 4.800781 -39.820312 4.839844 -39.613281 5.042969 -39.410156 C 5.695312 -38.679688 6.058594 -37.824219 6.058594 -36.847656 L 6.058594 -3.496094 C 6.058594 -2.5625 5.734375 -1.75 5.125 -1.058594 C 4.878906 -0.8125 4.839844 -0.609375 4.960938 -0.367188 C 5.042969 -0.121094 5.246094 0 5.570312 0 L 14.683594 0 C 14.925781 0 15.128906 -0.0820312 15.210938 -0.324219 C 15.292969 -0.570312 15.292969 -0.773438 15.128906 -1.015625 C 14.4375 -1.75 14.113281 -2.5625 14.113281 -3.539062 L 14.113281 -9.476562 C 14.113281 -9.800781 14.195312 -10.085938 14.4375 -10.332031 C 14.683594 -10.574219 14.96875 -10.695312 15.292969 -10.695312 L 16.269531 -10.695312 C 16.675781 -10.695312 17.042969 -10.492188 17.285156 -10.128906 L 22.289062 -2.074219 C 22.492188 -1.707031 22.453125 -1.382812 22.207031 -1.058594 L 22.167969 -1.015625 C 22.003906 -0.773438 22.003906 -0.570312 22.125 -0.324219 C 22.207031 -0.0820312 22.410156 0 22.695312 0 L 32.984375 0 C 33.269531 0 33.433594 -0.121094 33.515625 -0.367188 C 33.59375 -0.609375 33.515625 -0.8125 33.269531 -1.015625 Z M 22.734375 -20.660156 C 21.71875 -19.359375 20.253906 -18.75 18.34375 -18.75 L 15.292969 -18.75 C 14.96875 -18.75 14.683594 -18.832031 14.4375 -19.074219 C 14.195312 -19.320312 14.113281 -19.605469 14.113281 -19.929688 L 14.113281 -31.15625 C 14.113281 -31.480469 14.195312 -31.765625 14.4375 -32.007812 C 14.683594 -32.253906 14.96875 -32.375 15.292969 -32.375 L 18.34375 -32.375 C 19.808594 -32.375 20.90625 -32.050781 21.71875 -31.398438 C 22.53125 -30.75 23.101562 -30.015625 23.507812 -29.203125 C 23.875 -28.390625 24.117188 -27.617188 24.199219 -26.882812 C 24.28125 -26.152344 24.320312 -25.664062 24.320312 -25.5 C 24.320312 -24.527344 24.160156 -23.628906 23.914062 -22.816406 C 23.628906 -22.003906 23.222656 -21.273438 22.734375 -20.660156 Z M 22.734375 -20.660156 "/></g></g></g><g fill="#ffc1b2" fill-opacity="0.302"><g transform="translate(125.454168, 272.272365)"><g><path d="M 29.609375 -40.714844 C 28.917969 -40.0625 28.105469 -39.777344 27.210938 -39.777344 L 5.53125 -39.777344 C 5.246094 -39.777344 5.042969 -39.65625 4.960938 -39.410156 C 4.839844 -39.167969 4.839844 -38.964844 5.003906 -38.761719 L 5.125 -38.640625 C 5.777344 -37.90625 6.101562 -37.050781 6.101562 -36.078125 L 6.101562 -3.050781 C 6.101562 -2.5625 6.019531 -2.113281 5.855469 -1.667969 C 5.695312 -1.21875 5.449219 -0.8125 5.125 -0.488281 L 5.003906 -0.367188 C 4.839844 -0.121094 4.839844 0.0820312 4.960938 0.324219 C 5.042969 0.570312 5.246094 0.652344 5.53125 0.652344 L 27.210938 0.652344 C 28.105469 0.652344 28.917969 0.976562 29.609375 1.585938 C 29.8125 1.789062 30.058594 1.832031 30.300781 1.707031 C 30.546875 1.625 30.707031 1.421875 30.707031 1.097656 L 30.707031 -7.972656 C 30.707031 -8.214844 30.585938 -8.417969 30.339844 -8.542969 C 30.097656 -8.621094 29.855469 -8.582031 29.691406 -8.417969 C 28.957031 -7.726562 28.105469 -7.402344 27.128906 -7.402344 L 15.171875 -7.402344 C 14.886719 -7.402344 14.640625 -7.484375 14.4375 -7.6875 C 14.234375 -7.851562 14.152344 -8.09375 14.152344 -8.417969 L 14.152344 -14.519531 C 14.152344 -14.804688 14.234375 -15.046875 14.4375 -15.253906 C 14.640625 -15.414062 14.886719 -15.535156 15.171875 -15.535156 L 18.75 -15.535156 C 19.726562 -15.535156 20.582031 -15.171875 21.3125 -14.519531 C 21.515625 -14.355469 21.71875 -14.355469 21.964844 -14.480469 C 22.207031 -14.601562 22.328125 -14.804688 22.328125 -15.046875 L 22.328125 -24.078125 C 22.328125 -24.320312 22.207031 -24.484375 21.964844 -24.605469 C 21.71875 -24.730469 21.515625 -24.730469 21.3125 -24.605469 C 20.582031 -23.914062 19.726562 -23.589844 18.75 -23.589844 L 15.171875 -23.589844 C 14.886719 -23.589844 14.640625 -23.671875 14.4375 -23.875 C 14.234375 -24.039062 14.152344 -24.28125 14.152344 -24.605469 L 14.152344 -30.707031 C 14.152344 -30.992188 14.234375 -31.238281 14.4375 -31.441406 C 14.640625 -31.601562 14.886719 -31.722656 15.171875 -31.722656 L 27.128906 -31.722656 C 28.105469 -31.722656 28.957031 -31.359375 29.691406 -30.707031 C 29.855469 -30.503906 30.097656 -30.464844 30.339844 -30.585938 C 30.585938 -30.667969 30.707031 -30.871094 30.707031 -31.15625 L 30.707031 -40.265625 C 30.707031 -40.511719 30.546875 -40.714844 30.300781 -40.835938 C 30.058594 -40.917969 29.8125 -40.875 29.609375 -40.714844 Z M 29.609375 -40.714844 "/></g></g></g><g fill="#ffc1b2" fill-opacity="0.302"><g transform="translate(161.035232, 272.272365)"><g><path d="M 27.941406 -42.460938 C 27.25 -41.8125 26.4375 -41.527344 25.542969 -41.527344 L 21.554688 -41.527344 C 18.585938 -41.527344 15.902344 -40.957031 13.460938 -39.859375 C 11.023438 -38.761719 8.949219 -37.132812 7.160156 -35.019531 C 5.613281 -33.148438 4.433594 -31.074219 3.621094 -28.714844 C 2.804688 -26.355469 2.441406 -23.914062 2.441406 -21.3125 C 2.441406 -18.789062 2.847656 -16.308594 3.660156 -13.910156 C 4.472656 -11.46875 5.652344 -9.3125 7.28125 -7.441406 C 8.90625 -5.53125 10.898438 -3.984375 13.257812 -2.847656 C 15.617188 -1.667969 18.382812 -1.097656 21.554688 -1.097656 L 25.542969 -1.097656 C 26.4375 -1.097656 27.25 -0.773438 27.941406 -0.164062 C 28.144531 0.0390625 28.390625 0.0820312 28.632812 -0.0390625 C 28.878906 -0.121094 29 -0.324219 29 -0.652344 L 29 -9.722656 C 29 -9.964844 28.878906 -10.167969 28.632812 -10.289062 C 28.390625 -10.371094 28.1875 -10.332031 28.023438 -10.167969 C 27.25 -9.476562 26.394531 -9.152344 25.460938 -9.152344 L 21.554688 -9.152344 C 19.359375 -9.152344 17.53125 -9.558594 16.105469 -10.414062 C 14.683594 -11.226562 13.542969 -12.28125 12.730469 -13.542969 C 11.917969 -14.765625 11.308594 -16.105469 10.980469 -17.488281 C 10.65625 -18.871094 10.492188 -20.171875 10.492188 -21.3125 C 10.492188 -22.9375 10.738281 -24.484375 11.226562 -25.988281 C 11.714844 -27.453125 12.445312 -28.753906 13.339844 -29.855469 C 15.332031 -32.253906 18.058594 -33.472656 21.554688 -33.472656 L 25.460938 -33.472656 C 26.394531 -33.472656 27.25 -33.105469 28.023438 -32.457031 C 28.1875 -32.253906 28.390625 -32.210938 28.632812 -32.335938 C 28.878906 -32.414062 29 -32.621094 29 -32.902344 L 29 -42.015625 C 29 -42.257812 28.878906 -42.460938 28.632812 -42.585938 C 28.390625 -42.664062 28.144531 -42.625 27.941406 -42.460938 Z M 27.941406 -42.460938 "/></g></g></g><g fill="#ffc1b2" fill-opacity="0.302"><g transform="translate(194.949074, 272.272365)"><g><path d="M 14.074219 -3.578125 L 14.074219 -36.847656 C 14.074219 -37.824219 14.398438 -38.679688 15.046875 -39.410156 C 15.171875 -39.613281 15.171875 -39.820312 15.089844 -40.0625 C 14.96875 -40.304688 14.765625 -40.429688 14.519531 -40.429688 L 5.53125 -40.429688 C 5.246094 -40.429688 5.042969 -40.304688 4.960938 -40.0625 C 4.839844 -39.820312 4.839844 -39.613281 5.003906 -39.410156 C 5.652344 -38.679688 6.019531 -37.824219 6.019531 -36.847656 L 6.019531 -3.578125 C 6.019531 -2.601562 5.652344 -1.75 5.003906 -1.015625 C 4.839844 -0.773438 4.839844 -0.570312 4.960938 -0.324219 C 5.042969 -0.0820312 5.246094 0 5.53125 0 L 14.519531 0 C 14.765625 0 14.96875 -0.0820312 15.089844 -0.324219 C 15.171875 -0.570312 15.171875 -0.773438 15.046875 -1.015625 C 14.722656 -1.34375 14.480469 -1.75 14.316406 -2.195312 C 14.152344 -2.644531 14.074219 -3.089844 14.074219 -3.578125 Z M 14.074219 -3.578125 "/></g></g></g><g fill="#ffc1b2" fill-opacity="0.302"><g transform="translate(215.037128, 272.272365)"><g><path d="M 29.570312 -41.40625 C 28.835938 -40.753906 28.023438 -40.429688 27.046875 -40.429688 L 5.53125 -40.429688 C 5.246094 -40.429688 5.042969 -40.304688 4.960938 -40.0625 C 4.839844 -39.820312 4.839844 -39.613281 5.003906 -39.410156 L 5.042969 -39.371094 C 5.695312 -38.640625 6.019531 -37.785156 6.019531 -36.847656 L 6.019531 -3.539062 C 6.019531 -2.5625 5.695312 -1.75 5.042969 -1.015625 L 5.003906 -0.976562 C 4.839844 -0.730469 4.839844 -0.527344 4.960938 -0.324219 C 5.042969 -0.0820312 5.246094 0 5.53125 0 L 14.519531 0 C 14.765625 0 14.96875 -0.0820312 15.089844 -0.324219 C 15.171875 -0.527344 15.171875 -0.730469 15.046875 -0.976562 C 14.398438 -1.707031 14.074219 -2.523438 14.074219 -3.496094 L 14.074219 -15.332031 C 14.074219 -15.535156 14.152344 -15.742188 14.316406 -15.902344 C 14.480469 -16.066406 14.683594 -16.1875 14.925781 -16.1875 L 18.710938 -16.1875 C 19.683594 -16.1875 20.5 -15.820312 21.191406 -15.171875 L 21.230469 -15.171875 C 21.433594 -15.007812 21.636719 -15.007812 21.882812 -15.128906 C 22.125 -15.210938 22.246094 -15.414062 22.246094 -15.699219 L 22.246094 -24.6875 C 22.246094 -24.933594 22.125 -25.136719 21.882812 -25.257812 C 21.636719 -25.378906 21.433594 -25.378906 21.230469 -25.21875 C 20.5 -24.566406 19.683594 -24.242188 18.710938 -24.242188 L 14.925781 -24.242188 C 14.683594 -24.242188 14.480469 -24.320312 14.316406 -24.484375 C 14.152344 -24.648438 14.074219 -24.851562 14.074219 -25.09375 L 14.074219 -31.480469 C 14.074219 -31.722656 14.152344 -31.929688 14.316406 -32.089844 C 14.480469 -32.253906 14.683594 -32.335938 14.925781 -32.335938 L 27.046875 -32.335938 C 28.023438 -32.335938 28.835938 -32.007812 29.570312 -31.359375 C 29.773438 -31.195312 29.976562 -31.195312 30.21875 -31.316406 C 30.464844 -31.398438 30.585938 -31.601562 30.585938 -31.886719 L 30.585938 -40.875 C 30.585938 -41.121094 30.464844 -41.324219 30.21875 -41.445312 C 29.976562 -41.527344 29.773438 -41.527344 29.570312 -41.40625 Z M 29.570312 -41.40625 "/></g></g></g><g fill="#ffc1b2" fill-opacity="0.302"><g transform="translate(248.097025, 272.272365)"><g><path d="M 29.609375 -40.714844 C 28.917969 -40.0625 28.105469 -39.777344 27.210938 -39.777344 L 5.53125 -39.777344 C 5.246094 -39.777344 5.042969 -39.65625 4.960938 -39.410156 C 4.839844 -39.167969 4.839844 -38.964844 5.003906 -38.761719 L 5.125 -38.640625 C 5.777344 -37.90625 6.101562 -37.050781 6.101562 -36.078125 L 6.101562 -3.050781 C 6.101562 -2.5625 6.019531 -2.113281 5.855469 -1.667969 C 5.695312 -1.21875 5.449219 -0.8125 5.125 -0.488281 L 5.003906 -0.367188 C 4.839844 -0.121094 4.839844 0.0820312 4.960938 0.324219 C 5.042969 0.570312 5.246094 0.652344 5.53125 0.652344 L 27.210938 0.652344 C 28.105469 0.652344 28.917969 0.976562 29.609375 1.585938 C 29.8125 1.789062 30.058594 1.832031 30.300781 1.707031 C 30.546875 1.625 30.707031 1.421875 30.707031 1.097656 L 30.707031 -7.972656 C 30.707031 -8.214844 30.585938 -8.417969 30.339844 -8.542969 C 30.097656 -8.621094 29.855469 -8.582031 29.691406 -8.417969 C 28.957031 -7.726562 28.105469 -7.402344 27.128906 -7.402344 L 15.171875 -7.402344 C 14.886719 -7.402344 14.640625 -7.484375 14.4375 -7.6875 C 14.234375 -7.851562 14.152344 -8.09375 14.152344 -8.417969 L 14.152344 -14.519531 C 14.152344 -14.804688 14.234375 -15.046875 14.4375 -15.253906 C 14.640625 -15.414062 14.886719 -15.535156 15.171875 -15.535156 L 18.75 -15.535156 C 19.726562 -15.535156 20.582031 -15.171875 21.3125 -14.519531 C 21.515625 -14.355469 21.71875 -14.355469 21.964844 -14.480469 C 22.207031 -14.601562 22.328125 -14.804688 22.328125 -15.046875 L 22.328125 -24.078125 C 22.328125 -24.320312 22.207031 -24.484375 21.964844 -24.605469 C 21.71875 -24.730469 21.515625 -24.730469 21.3125 -24.605469 C 20.582031 -23.914062 19.726562 -23.589844 18.75 -23.589844 L 15.171875 -23.589844 C 14.886719 -23.589844 14.640625 -23.671875 14.4375 -23.875 C 14.234375 -24.039062 14.152344 -24.28125 14.152344 -24.605469 L 14.152344 -30.707031 C 14.152344 -30.992188 14.234375 -31.238281 14.4375 -31.441406 C 14.640625 -31.601562 14.886719 -31.722656 15.171875 -31.722656 L 27.128906 -31.722656 C 28.105469 -31.722656 28.957031 -31.359375 29.691406 -30.707031 C 29.855469 -30.503906 30.097656 -30.464844 30.339844 -30.585938 C 30.585938 -30.667969 30.707031 -30.871094 30.707031 -31.15625 L 30.707031 -40.265625 C 30.707031 -40.511719 30.546875 -40.714844 30.300781 -40.835938 C 30.058594 -40.917969 29.8125 -40.875 29.609375 -40.714844 Z M 29.609375 -40.714844 "/></g></g></g><g fill="#ffc1b2" fill-opacity="0.502"><g transform="translate(88.103151, 272.729336)"><g><path d="M 33.269531 -1.015625 L 32.660156 -1.503906 C 32.007812 -2.035156 31.441406 -2.683594 30.992188 -3.417969 L 25.949219 -11.46875 C 25.785156 -11.714844 25.703125 -12 25.785156 -12.324219 C 25.867188 -12.609375 26.03125 -12.851562 26.316406 -13.054688 C 27.332031 -13.789062 28.226562 -14.601562 28.957031 -15.535156 C 30.058594 -16.878906 30.910156 -18.425781 31.480469 -20.132812 C 32.050781 -21.839844 32.375 -23.628906 32.375 -25.5 C 32.375 -27.371094 32.050781 -29.203125 31.480469 -30.910156 C 30.910156 -32.621094 30.058594 -34.164062 28.957031 -35.546875 C 27.65625 -37.09375 26.070312 -38.3125 24.28125 -39.167969 C 22.453125 -39.980469 20.457031 -40.429688 18.34375 -40.429688 L 5.492188 -40.429688 C 5.207031 -40.429688 5.003906 -40.304688 4.921875 -40.0625 C 4.800781 -39.820312 4.839844 -39.613281 5.042969 -39.410156 C 5.695312 -38.679688 6.058594 -37.824219 6.058594 -36.847656 L 6.058594 -3.496094 C 6.058594 -2.5625 5.734375 -1.75 5.125 -1.058594 C 4.878906 -0.8125 4.839844 -0.609375 4.960938 -0.367188 C 5.042969 -0.121094 5.246094 0 5.570312 0 L 14.683594 0 C 14.925781 0 15.128906 -0.0820312 15.210938 -0.324219 C 15.292969 -0.570312 15.292969 -0.773438 15.128906 -1.015625 C 14.4375 -1.75 14.113281 -2.5625 14.113281 -3.539062 L 14.113281 -9.476562 C 14.113281 -9.800781 14.195312 -10.085938 14.4375 -10.332031 C 14.683594 -10.574219 14.96875 -10.695312 15.292969 -10.695312 L 16.269531 -10.695312 C 16.675781 -10.695312 17.042969 -10.492188 17.285156 -10.128906 L 22.289062 -2.074219 C 22.492188 -1.707031 22.453125 -1.382812 22.207031 -1.058594 L 22.167969 -1.015625 C 22.003906 -0.773438 22.003906 -0.570312 22.125 -0.324219 C 22.207031 -0.0820312 22.410156 0 22.695312 0 L 32.984375 0 C 33.269531 0 33.433594 -0.121094 33.515625 -0.367188 C 33.59375 -0.609375 33.515625 -0.8125 33.269531 -1.015625 Z M 22.734375 -20.660156 C 21.71875 -19.359375 20.253906 -18.75 18.34375 -18.75 L 15.292969 -18.75 C 14.96875 -18.75 14.683594 -18.832031 14.4375 -19.074219 C 14.195312 -19.320312 14.113281 -19.605469 14.113281 -19.929688 L 14.113281 -31.15625 C 14.113281 -31.480469 14.195312 -31.765625 14.4375 -32.007812 C 14.683594 -32.253906 14.96875 -32.375 15.292969 -32.375 L 18.34375 -32.375 C 19.808594 -32.375 20.90625 -32.050781 21.71875 -31.398438 C 22.53125 -30.75 23.101562 -30.015625 23.507812 -29.203125 C 23.875 -28.390625 24.117188 -27.617188 24.199219 -26.882812 C 24.28125 -26.152344 24.320312 -25.664062 24.320312 -25.5 C 24.320312 -24.527344 24.160156 -23.628906 23.914062 -22.816406 C 23.628906 -22.003906 23.222656 -21.273438 22.734375 -20.660156 Z M 22.734375 -20.660156 "/></g></g></g><g fill="#ffc1b2" fill-opacity="0.502"><g transform="translate(126.530703, 272.729336)"><g><path d="M 29.609375 -40.714844 C 28.917969 -40.0625 28.105469 -39.777344 27.210938 -39.777344 L 5.53125 -39.777344 C 5.246094 -39.777344 5.042969 -39.65625 4.960938 -39.410156 C 4.839844 -39.167969 4.839844 -38.964844 5.003906 -38.761719 L 5.125 -38.640625 C 5.777344 -37.90625 6.101562 -37.050781 6.101562 -36.078125 L 6.101562 -3.050781 C 6.101562 -2.5625 6.019531 -2.113281 5.855469 -1.667969 C 5.695312 -1.21875 5.449219 -0.8125 5.125 -0.488281 L 5.003906 -0.367188 C 4.839844 -0.121094 4.839844 0.0820312 4.960938 0.324219 C 5.042969 0.570312 5.246094 0.652344 5.53125 0.652344 L 27.210938 0.652344 C 28.105469 0.652344 28.917969 0.976562 29.609375 1.585938 C 29.8125 1.789062 30.058594 1.832031 30.300781 1.707031 C 30.546875 1.625 30.707031 1.421875 30.707031 1.097656 L 30.707031 -7.972656 C 30.707031 -8.214844 30.585938 -8.417969 30.339844 -8.542969 C 30.097656 -8.621094 29.855469 -8.582031 29.691406 -8.417969 C 28.957031 -7.726562 28.105469 -7.402344 27.128906 -7.402344 L 15.171875 -7.402344 C 14.886719 -7.402344 14.640625 -7.484375 14.4375 -7.6875 C 14.234375 -7.851562 14.152344 -8.09375 14.152344 -8.417969 L 14.152344 -14.519531 C 14.152344 -14.804688 14.234375 -15.046875 14.4375 -15.253906 C 14.640625 -15.414062 14.886719 -15.535156 15.171875 -15.535156 L 18.75 -15.535156 C 19.726562 -15.535156 20.582031 -15.171875 21.3125 -14.519531 C 21.515625 -14.355469 21.71875 -14.355469 21.964844 -14.480469 C 22.207031 -14.601562 22.328125 -14.804688 22.328125 -15.046875 L 22.328125 -24.078125 C 22.328125 -24.320312 22.207031 -24.484375 21.964844 -24.605469 C 21.71875 -24.730469 21.515625 -24.730469 21.3125 -24.605469 C 20.582031 -23.914062 19.726562 -23.589844 18.75 -23.589844 L 15.171875 -23.589844 C 14.886719 -23.589844 14.640625 -23.671875 14.4375 -23.875 C 14.234375 -24.039062 14.152344 -24.28125 14.152344 -24.605469 L 14.152344 -30.707031 C 14.152344 -30.992188 14.234375 -31.238281 14.4375 -31.441406 C 14.640625 -31.601562 14.886719 -31.722656 15.171875 -31.722656 L 27.128906 -31.722656 C 28.105469 -31.722656 28.957031 -31.359375 29.691406 -30.707031 C 29.855469 -30.503906 30.097656 -30.464844 30.339844 -30.585938 C 30.585938 -30.667969 30.707031 -30.871094 30.707031 -31.15625 L 30.707031 -40.265625 C 30.707031 -40.511719 30.546875 -40.714844 30.300781 -40.835938 C 30.058594 -40.917969 29.8125 -40.875 29.609375 -40.714844 Z M 29.609375 -40.714844 "/></g></g></g><g fill="#ffc1b2" fill-opacity="0.502"><g transform="translate(162.111767, 272.729336)"><g><path d="M 27.941406 -42.460938 C 27.25 -41.8125 26.4375 -41.527344 25.542969 -41.527344 L 21.554688 -41.527344 C 18.585938 -41.527344 15.902344 -40.957031 13.460938 -39.859375 C 11.023438 -38.761719 8.949219 -37.132812 7.160156 -35.019531 C 5.613281 -33.148438 4.433594 -31.074219 3.621094 -28.714844 C 2.804688 -26.355469 2.441406 -23.914062 2.441406 -21.3125 C 2.441406 -18.789062 2.847656 -16.308594 3.660156 -13.910156 C 4.472656 -11.46875 5.652344 -9.3125 7.28125 -7.441406 C 8.90625 -5.53125 10.898438 -3.984375 13.257812 -2.847656 C 15.617188 -1.667969 18.382812 -1.097656 21.554688 -1.097656 L 25.542969 -1.097656 C 26.4375 -1.097656 27.25 -0.773438 27.941406 -0.164062 C 28.144531 0.0390625 28.390625 0.0820312 28.632812 -0.0390625 C 28.878906 -0.121094 29 -0.324219 29 -0.652344 L 29 -9.722656 C 29 -9.964844 28.878906 -10.167969 28.632812 -10.289062 C 28.390625 -10.371094 28.1875 -10.332031 28.023438 -10.167969 C 27.25 -9.476562 26.394531 -9.152344 25.460938 -9.152344 L 21.554688 -9.152344 C 19.359375 -9.152344 17.53125 -9.558594 16.105469 -10.414062 C 14.683594 -11.226562 13.542969 -12.28125 12.730469 -13.542969 C 11.917969 -14.765625 11.308594 -16.105469 10.980469 -17.488281 C 10.65625 -18.871094 10.492188 -20.171875 10.492188 -21.3125 C 10.492188 -22.9375 10.738281 -24.484375 11.226562 -25.988281 C 11.714844 -27.453125 12.445312 -28.753906 13.339844 -29.855469 C 15.332031 -32.253906 18.058594 -33.472656 21.554688 -33.472656 L 25.460938 -33.472656 C 26.394531 -33.472656 27.25 -33.105469 28.023438 -32.457031 C 28.1875 -32.253906 28.390625 -32.210938 28.632812 -32.335938 C 28.878906 -32.414062 29 -32.621094 29 -32.902344 L 29 -42.015625 C 29 -42.257812 28.878906 -42.460938 28.632812 -42.585938 C 28.390625 -42.664062 28.144531 -42.625 27.941406 -42.460938 Z M 27.941406 -42.460938 "/></g></g></g><g fill="#ffc1b2" fill-opacity="0.502"><g transform="translate(196.02561, 272.729336)"><g><path d="M 14.074219 -3.578125 L 14.074219 -36.847656 C 14.074219 -37.824219 14.398438 -38.679688 15.046875 -39.410156 C 15.171875 -39.613281 15.171875 -39.820312 15.089844 -40.0625 C 14.96875 -40.304688 14.765625 -40.429688 14.519531 -40.429688 L 5.53125 -40.429688 C 5.246094 -40.429688 5.042969 -40.304688 4.960938 -40.0625 C 4.839844 -39.820312 4.839844 -39.613281 5.003906 -39.410156 C 5.652344 -38.679688 6.019531 -37.824219 6.019531 -36.847656 L 6.019531 -3.578125 C 6.019531 -2.601562 5.652344 -1.75 5.003906 -1.015625 C 4.839844 -0.773438 4.839844 -0.570312 4.960938 -0.324219 C 5.042969 -0.0820312 5.246094 0 5.53125 0 L 14.519531 0 C 14.765625 0 14.96875 -0.0820312 15.089844 -0.324219 C 15.171875 -0.570312 15.171875 -0.773438 15.046875 -1.015625 C 14.722656 -1.34375 14.480469 -1.75 14.316406 -2.195312 C 14.152344 -2.644531 14.074219 -3.089844 14.074219 -3.578125 Z M 14.074219 -3.578125 "/></g></g></g><g fill="#ffc1b2" fill-opacity="0.502"><g transform="translate(216.113663, 272.729336)"><g><path d="M 29.570312 -41.40625 C 28.835938 -40.753906 28.023438 -40.429688 27.046875 -40.429688 L 5.53125 -40.429688 C 5.246094 -40.429688 5.042969 -40.304688 4.960938 -40.0625 C 4.839844 -39.820312 4.839844 -39.613281 5.003906 -39.410156 L 5.042969 -39.371094 C 5.695312 -38.640625 6.019531 -37.785156 6.019531 -36.847656 L 6.019531 -3.539062 C 6.019531 -2.5625 5.695312 -1.75 5.042969 -1.015625 L 5.003906 -0.976562 C 4.839844 -0.730469 4.839844 -0.527344 4.960938 -0.324219 C 5.042969 -0.0820312 5.246094 0 5.53125 0 L 14.519531 0 C 14.765625 0 14.96875 -0.0820312 15.089844 -0.324219 C 15.171875 -0.527344 15.171875 -0.730469 15.046875 -0.976562 C 14.398438 -1.707031 14.074219 -2.523438 14.074219 -3.496094 L 14.074219 -15.332031 C 14.074219 -15.535156 14.152344 -15.742188 14.316406 -15.902344 C 14.480469 -16.066406 14.683594 -16.1875 14.925781 -16.1875 L 18.710938 -16.1875 C 19.683594 -16.1875 20.5 -15.820312 21.191406 -15.171875 L 21.230469 -15.171875 C 21.433594 -15.007812 21.636719 -15.007812 21.882812 -15.128906 C 22.125 -15.210938 22.246094 -15.414062 22.246094 -15.699219 L 22.246094 -24.6875 C 22.246094 -24.933594 22.125 -25.136719 21.882812 -25.257812 C 21.636719 -25.378906 21.433594 -25.378906 21.230469 -25.21875 C 20.5 -24.566406 19.683594 -24.242188 18.710938 -24.242188 L 14.925781 -24.242188 C 14.683594 -24.242188 14.480469 -24.320312 14.316406 -24.484375 C 14.152344 -24.648438 14.074219 -24.851562 14.074219 -25.09375 L 14.074219 -31.480469 C 14.074219 -31.722656 14.152344 -31.929688 14.316406 -32.089844 C 14.480469 -32.253906 14.683594 -32.335938 14.925781 -32.335938 L 27.046875 -32.335938 C 28.023438 -32.335938 28.835938 -32.007812 29.570312 -31.359375 C 29.773438 -31.195312 29.976562 -31.195312 30.21875 -31.316406 C 30.464844 -31.398438 30.585938 -31.601562 30.585938 -31.886719 L 30.585938 -40.875 C 30.585938 -41.121094 30.464844 -41.324219 30.21875 -41.445312 C 29.976562 -41.527344 29.773438 -41.527344 29.570312 -41.40625 Z M 29.570312 -41.40625 "/></g></g></g><g fill="#ffc1b2" fill-opacity="0.502"><g transform="translate(249.17356, 272.729336)"><g><path d="M 29.609375 -40.714844 C 28.917969 -40.0625 28.105469 -39.777344 27.210938 -39.777344 L 5.53125 -39.777344 C 5.246094 -39.777344 5.042969 -39.65625 4.960938 -39.410156 C 4.839844 -39.167969 4.839844 -38.964844 5.003906 -38.761719 L 5.125 -38.640625 C 5.777344 -37.90625 6.101562 -37.050781 6.101562 -36.078125 L 6.101562 -3.050781 C 6.101562 -2.5625 6.019531 -2.113281 5.855469 -1.667969 C 5.695312 -1.21875 5.449219 -0.8125 5.125 -0.488281 L 5.003906 -0.367188 C 4.839844 -0.121094 4.839844 0.0820312 4.960938 0.324219 C 5.042969 0.570312 5.246094 0.652344 5.53125 0.652344 L 27.210938 0.652344 C 28.105469 0.652344 28.917969 0.976562 29.609375 1.585938 C 29.8125 1.789062 30.058594 1.832031 30.300781 1.707031 C 30.546875 1.625 30.707031 1.421875 30.707031 1.097656 L 30.707031 -7.972656 C 30.707031 -8.214844 30.585938 -8.417969 30.339844 -8.542969 C 30.097656 -8.621094 29.855469 -8.582031 29.691406 -8.417969 C 28.957031 -7.726562 28.105469 -7.402344 27.128906 -7.402344 L 15.171875 -7.402344 C 14.886719 -7.402344 14.640625 -7.484375 14.4375 -7.6875 C 14.234375 -7.851562 14.152344 -8.09375 14.152344 -8.417969 L 14.152344 -14.519531 C 14.152344 -14.804688 14.234375 -15.046875 14.4375 -15.253906 C 14.640625 -15.414062 14.886719 -15.535156 15.171875 -15.535156 L 18.75 -15.535156 C 19.726562 -15.535156 20.582031 -15.171875 21.3125 -14.519531 C 21.515625 -14.355469 21.71875 -14.355469 21.964844 -14.480469 C 22.207031 -14.601562 22.328125 -14.804688 22.328125 -15.046875 L 22.328125 -24.078125 C 22.328125 -24.320312 22.207031 -24.484375 21.964844 -24.605469 C 21.71875 -24.730469 21.515625 -24.730469 21.3125 -24.605469 C 20.582031 -23.914062 19.726562 -23.589844 18.75 -23.589844 L 15.171875 -23.589844 C 14.886719 -23.589844 14.640625 -23.671875 14.4375 -23.875 C 14.234375 -24.039062 14.152344 -24.28125 14.152344 -24.605469 L 14.152344 -30.707031 C 14.152344 -30.992188 14.234375 -31.238281 14.4375 -31.441406 C 14.640625 -31.601562 14.886719 -31.722656 15.171875 -31.722656 L 27.128906 -31.722656 C 28.105469 -31.722656 28.957031 -31.359375 29.691406 -30.707031 C 29.855469 -30.503906 30.097656 -30.464844 30.339844 -30.585938 C 30.585938 -30.667969 30.707031 -30.871094 30.707031 -31.15625 L 30.707031 -40.265625 C 30.707031 -40.511719 30.546875 -40.714844 30.300781 -40.835938 C 30.058594 -40.917969 29.8125 -40.875 29.609375 -40.714844 Z M 29.609375 -40.714844 "/></g></g></g><g fill="#fff2e7" fill-opacity="1"><g transform="translate(89.179686, 273.186296)"><g><path d="M 33.269531 -1.015625 L 32.660156 -1.503906 C 32.007812 -2.035156 31.441406 -2.683594 30.992188 -3.417969 L 25.949219 -11.46875 C 25.785156 -11.714844 25.703125 -12 25.785156 -12.324219 C 25.867188 -12.609375 26.03125 -12.851562 26.316406 -13.054688 C 27.332031 -13.789062 28.226562 -14.601562 28.957031 -15.535156 C 30.058594 -16.878906 30.910156 -18.425781 31.480469 -20.132812 C 32.050781 -21.839844 32.375 -23.628906 32.375 -25.5 C 32.375 -27.371094 32.050781 -29.203125 31.480469 -30.910156 C 30.910156 -32.621094 30.058594 -34.164062 28.957031 -35.546875 C 27.65625 -37.09375 26.070312 -38.3125 24.28125 -39.167969 C 22.453125 -39.980469 20.457031 -40.429688 18.34375 -40.429688 L 5.492188 -40.429688 C 5.207031 -40.429688 5.003906 -40.304688 4.921875 -40.0625 C 4.800781 -39.820312 4.839844 -39.613281 5.042969 -39.410156 C 5.695312 -38.679688 6.058594 -37.824219 6.058594 -36.847656 L 6.058594 -3.496094 C 6.058594 -2.5625 5.734375 -1.75 5.125 -1.058594 C 4.878906 -0.8125 4.839844 -0.609375 4.960938 -0.367188 C 5.042969 -0.121094 5.246094 0 5.570312 0 L 14.683594 0 C 14.925781 0 15.128906 -0.0820312 15.210938 -0.324219 C 15.292969 -0.570312 15.292969 -0.773438 15.128906 -1.015625 C 14.4375 -1.75 14.113281 -2.5625 14.113281 -3.539062 L 14.113281 -9.476562 C 14.113281 -9.800781 14.195312 -10.085938 14.4375 -10.332031 C 14.683594 -10.574219 14.96875 -10.695312 15.292969 -10.695312 L 16.269531 -10.695312 C 16.675781 -10.695312 17.042969 -10.492188 17.285156 -10.128906 L 22.289062 -2.074219 C 22.492188 -1.707031 22.453125 -1.382812 22.207031 -1.058594 L 22.167969 -1.015625 C 22.003906 -0.773438 22.003906 -0.570312 22.125 -0.324219 C 22.207031 -0.0820312 22.410156 0 22.695312 0 L 32.984375 0 C 33.269531 0 33.433594 -0.121094 33.515625 -0.367188 C 33.59375 -0.609375 33.515625 -0.8125 33.269531 -1.015625 Z M 22.734375 -20.660156 C 21.71875 -19.359375 20.253906 -18.75 18.34375 -18.75 L 15.292969 -18.75 C 14.96875 -18.75 14.683594 -18.832031 14.4375 -19.074219 C 14.195312 -19.320312 14.113281 -19.605469 14.113281 -19.929688 L 14.113281 -31.15625 C 14.113281 -31.480469 14.195312 -31.765625 14.4375 -32.007812 C 14.683594 -32.253906 14.96875 -32.375 15.292969 -32.375 L 18.34375 -32.375 C 19.808594 -32.375 20.90625 -32.050781 21.71875 -31.398438 C 22.53125 -30.75 23.101562 -30.015625 23.507812 -29.203125 C 23.875 -28.390625 24.117188 -27.617188 24.199219 -26.882812 C 24.28125 -26.152344 24.320312 -25.664062 24.320312 -25.5 C 24.320312 -24.527344 24.160156 -23.628906 23.914062 -22.816406 C 23.628906 -22.003906 23.222656 -21.273438 22.734375 -20.660156 Z M 22.734375 -20.660156 "/></g></g></g><g fill="#fff2e7" fill-opacity="1"><g transform="translate(127.607239, 273.186296)"><g><path d="M 29.609375 -40.714844 C 28.917969 -40.0625 28.105469 -39.777344 27.210938 -39.777344 L 5.53125 -39.777344 C 5.246094 -39.777344 5.042969 -39.65625 4.960938 -39.410156 C 4.839844 -39.167969 4.839844 -38.964844 5.003906 -38.761719 L 5.125 -38.640625 C 5.777344 -37.90625 6.101562 -37.050781 6.101562 -36.078125 L 6.101562 -3.050781 C 6.101562 -2.5625 6.019531 -2.113281 5.855469 -1.667969 C 5.695312 -1.21875 5.449219 -0.8125 5.125 -0.488281 L 5.003906 -0.367188 C 4.839844 -0.121094 4.839844 0.0820312 4.960938 0.324219 C 5.042969 0.570312 5.246094 0.652344 5.53125 0.652344 L 27.210938 0.652344 C 28.105469 0.652344 28.917969 0.976562 29.609375 1.585938 C 29.8125 1.789062 30.058594 1.832031 30.300781 1.707031 C 30.546875 1.625 30.707031 1.421875 30.707031 1.097656 L 30.707031 -7.972656 C 30.707031 -8.214844 30.585938 -8.417969 30.339844 -8.542969 C 30.097656 -8.621094 29.855469 -8.582031 29.691406 -8.417969 C 28.957031 -7.726562 28.105469 -7.402344 27.128906 -7.402344 L 15.171875 -7.402344 C 14.886719 -7.402344 14.640625 -7.484375 14.4375 -7.6875 C 14.234375 -7.851562 14.152344 -8.09375 14.152344 -8.417969 L 14.152344 -14.519531 C 14.152344 -14.804688 14.234375 -15.046875 14.4375 -15.253906 C 14.640625 -15.414062 14.886719 -15.535156 15.171875 -15.535156 L 18.75 -15.535156 C 19.726562 -15.535156 20.582031 -15.171875 21.3125 -14.519531 C 21.515625 -14.355469 21.71875 -14.355469 21.964844 -14.480469 C 22.207031 -14.601562 22.328125 -14.804688 22.328125 -15.046875 L 22.328125 -24.078125 C 22.328125 -24.320312 22.207031 -24.484375 21.964844 -24.605469 C 21.71875 -24.730469 21.515625 -24.730469 21.3125 -24.605469 C 20.582031 -23.914062 19.726562 -23.589844 18.75 -23.589844 L 15.171875 -23.589844 C 14.886719 -23.589844 14.640625 -23.671875 14.4375 -23.875 C 14.234375 -24.039062 14.152344 -24.28125 14.152344 -24.605469 L 14.152344 -30.707031 C 14.152344 -30.992188 14.234375 -31.238281 14.4375 -31.441406 C 14.640625 -31.601562 14.886719 -31.722656 15.171875 -31.722656 L 27.128906 -31.722656 C 28.105469 -31.722656 28.957031 -31.359375 29.691406 -30.707031 C 29.855469 -30.503906 30.097656 -30.464844 30.339844 -30.585938 C 30.585938 -30.667969 30.707031 -30.871094 30.707031 -31.15625 L 30.707031 -40.265625 C 30.707031 -40.511719 30.546875 -40.714844 30.300781 -40.835938 C 30.058594 -40.917969 29.8125 -40.875 29.609375 -40.714844 Z M 29.609375 -40.714844 "/></g></g></g><g fill="#fff2e7" fill-opacity="1"><g transform="translate(163.188303, 273.186296)"><g><path d="M 27.941406 -42.460938 C 27.25 -41.8125 26.4375 -41.527344 25.542969 -41.527344 L 21.554688 -41.527344 C 18.585938 -41.527344 15.902344 -40.957031 13.460938 -39.859375 C 11.023438 -38.761719 8.949219 -37.132812 7.160156 -35.019531 C 5.613281 -33.148438 4.433594 -31.074219 3.621094 -28.714844 C 2.804688 -26.355469 2.441406 -23.914062 2.441406 -21.3125 C 2.441406 -18.789062 2.847656 -16.308594 3.660156 -13.910156 C 4.472656 -11.46875 5.652344 -9.3125 7.28125 -7.441406 C 8.90625 -5.53125 10.898438 -3.984375 13.257812 -2.847656 C 15.617188 -1.667969 18.382812 -1.097656 21.554688 -1.097656 L 25.542969 -1.097656 C 26.4375 -1.097656 27.25 -0.773438 27.941406 -0.164062 C 28.144531 0.0390625 28.390625 0.0820312 28.632812 -0.0390625 C 28.878906 -0.121094 29 -0.324219 29 -0.652344 L 29 -9.722656 C 29 -9.964844 28.878906 -10.167969 28.632812 -10.289062 C 28.390625 -10.371094 28.1875 -10.332031 28.023438 -10.167969 C 27.25 -9.476562 26.394531 -9.152344 25.460938 -9.152344 L 21.554688 -9.152344 C 19.359375 -9.152344 17.53125 -9.558594 16.105469 -10.414062 C 14.683594 -11.226562 13.542969 -12.28125 12.730469 -13.542969 C 11.917969 -14.765625 11.308594 -16.105469 10.980469 -17.488281 C 10.65625 -18.871094 10.492188 -20.171875 10.492188 -21.3125 C 10.492188 -22.9375 10.738281 -24.484375 11.226562 -25.988281 C 11.714844 -27.453125 12.445312 -28.753906 13.339844 -29.855469 C 15.332031 -32.253906 18.058594 -33.472656 21.554688 -33.472656 L 25.460938 -33.472656 C 26.394531 -33.472656 27.25 -33.105469 28.023438 -32.457031 C 28.1875 -32.253906 28.390625 -32.210938 28.632812 -32.335938 C 28.878906 -32.414062 29 -32.621094 29 -32.902344 L 29 -42.015625 C 29 -42.257812 28.878906 -42.460938 28.632812 -42.585938 C 28.390625 -42.664062 28.144531 -42.625 27.941406 -42.460938 Z M 27.941406 -42.460938 "/></g></g></g><g fill="#fff2e7" fill-opacity="1"><g transform="translate(197.102146, 273.186296)"><g><path d="M 14.074219 -3.578125 L 14.074219 -36.847656 C 14.074219 -37.824219 14.398438 -38.679688 15.046875 -39.410156 C 15.171875 -39.613281 15.171875 -39.820312 15.089844 -40.0625 C 14.96875 -40.304688 14.765625 -40.429688 14.519531 -40.429688 L 5.53125 -40.429688 C 5.246094 -40.429688 5.042969 -40.304688 4.960938 -40.0625 C 4.839844 -39.820312 4.839844 -39.613281 5.003906 -39.410156 C 5.652344 -38.679688 6.019531 -37.824219 6.019531 -36.847656 L 6.019531 -3.578125 C 6.019531 -2.601562 5.652344 -1.75 5.003906 -1.015625 C 4.839844 -0.773438 4.839844 -0.570312 4.960938 -0.324219 C 5.042969 -0.0820312 5.246094 0 5.53125 0 L 14.519531 0 C 14.765625 0 14.96875 -0.0820312 15.089844 -0.324219 C 15.171875 -0.570312 15.171875 -0.773438 15.046875 -1.015625 C 14.722656 -1.34375 14.480469 -1.75 14.316406 -2.195312 C 14.152344 -2.644531 14.074219 -3.089844 14.074219 -3.578125 Z M 14.074219 -3.578125 "/></g></g></g><g fill="#fff2e7" fill-opacity="1"><g transform="translate(217.190199, 273.186296)"><g><path d="M 29.570312 -41.40625 C 28.835938 -40.753906 28.023438 -40.429688 27.046875 -40.429688 L 5.53125 -40.429688 C 5.246094 -40.429688 5.042969 -40.304688 4.960938 -40.0625 C 4.839844 -39.820312 4.839844 -39.613281 5.003906 -39.410156 L 5.042969 -39.371094 C 5.695312 -38.640625 6.019531 -37.785156 6.019531 -36.847656 L 6.019531 -3.539062 C 6.019531 -2.5625 5.695312 -1.75 5.042969 -1.015625 L 5.003906 -0.976562 C 4.839844 -0.730469 4.839844 -0.527344 4.960938 -0.324219 C 5.042969 -0.0820312 5.246094 0 5.53125 0 L 14.519531 0 C 14.765625 0 14.96875 -0.0820312 15.089844 -0.324219 C 15.171875 -0.527344 15.171875 -0.730469 15.046875 -0.976562 C 14.398438 -1.707031 14.074219 -2.523438 14.074219 -3.496094 L 14.074219 -15.332031 C 14.074219 -15.535156 14.152344 -15.742188 14.316406 -15.902344 C 14.480469 -16.066406 14.683594 -16.1875 14.925781 -16.1875 L 18.710938 -16.1875 C 19.683594 -16.1875 20.5 -15.820312 21.191406 -15.171875 L 21.230469 -15.171875 C 21.433594 -15.007812 21.636719 -15.007812 21.882812 -15.128906 C 22.125 -15.210938 22.246094 -15.414062 22.246094 -15.699219 L 22.246094 -24.6875 C 22.246094 -24.933594 22.125 -25.136719 21.882812 -25.257812 C 21.636719 -25.378906 21.433594 -25.378906 21.230469 -25.21875 C 20.5 -24.566406 19.683594 -24.242188 18.710938 -24.242188 L 14.925781 -24.242188 C 14.683594 -24.242188 14.480469 -24.320312 14.316406 -24.484375 C 14.152344 -24.648438 14.074219 -24.851562 14.074219 -25.09375 L 14.074219 -31.480469 C 14.074219 -31.722656 14.152344 -31.929688 14.316406 -32.089844 C 14.480469 -32.253906 14.683594 -32.335938 14.925781 -32.335938 L 27.046875 -32.335938 C 28.023438 -32.335938 28.835938 -32.007812 29.570312 -31.359375 C 29.773438 -31.195312 29.976562 -31.195312 30.21875 -31.316406 C 30.464844 -31.398438 30.585938 -31.601562 30.585938 -31.886719 L 30.585938 -40.875 C 30.585938 -41.121094 30.464844 -41.324219 30.21875 -41.445312 C 29.976562 -41.527344 29.773438 -41.527344 29.570312 -41.40625 Z M 29.570312 -41.40625 "/></g></g></g><g fill="#fff2e7" fill-opacity="1"><g transform="translate(250.250096, 273.186296)"><g><path d="M 29.609375 -40.714844 C 28.917969 -40.0625 28.105469 -39.777344 27.210938 -39.777344 L 5.53125 -39.777344 C 5.246094 -39.777344 5.042969 -39.65625 4.960938 -39.410156 C 4.839844 -39.167969 4.839844 -38.964844 5.003906 -38.761719 L 5.125 -38.640625 C 5.777344 -37.90625 6.101562 -37.050781 6.101562 -36.078125 L 6.101562 -3.050781 C 6.101562 -2.5625 6.019531 -2.113281 5.855469 -1.667969 C 5.695312 -1.21875 5.449219 -0.8125 5.125 -0.488281 L 5.003906 -0.367188 C 4.839844 -0.121094 4.839844 0.0820312 4.960938 0.324219 C 5.042969 0.570312 5.246094 0.652344 5.53125 0.652344 L 27.210938 0.652344 C 28.105469 0.652344 28.917969 0.976562 29.609375 1.585938 C 29.8125 1.789062 30.058594 1.832031 30.300781 1.707031 C 30.546875 1.625 30.707031 1.421875 30.707031 1.097656 L 30.707031 -7.972656 C 30.707031 -8.214844 30.585938 -8.417969 30.339844 -8.542969 C 30.097656 -8.621094 29.855469 -8.582031 29.691406 -8.417969 C 28.957031 -7.726562 28.105469 -7.402344 27.128906 -7.402344 L 15.171875 -7.402344 C 14.886719 -7.402344 14.640625 -7.484375 14.4375 -7.6875 C 14.234375 -7.851562 14.152344 -8.09375 14.152344 -8.417969 L 14.152344 -14.519531 C 14.152344 -14.804688 14.234375 -15.046875 14.4375 -15.253906 C 14.640625 -15.414062 14.886719 -15.535156 15.171875 -15.535156 L 18.75 -15.535156 C 19.726562 -15.535156 20.582031 -15.171875 21.3125 -14.519531 C 21.515625 -14.355469 21.71875 -14.355469 21.964844 -14.480469 C 22.207031 -14.601562 22.328125 -14.804688 22.328125 -15.046875 L 22.328125 -24.078125 C 22.328125 -24.320312 22.207031 -24.484375 21.964844 -24.605469 C 21.71875 -24.730469 21.515625 -24.730469 21.3125 -24.605469 C 20.582031 -23.914062 19.726562 -23.589844 18.75 -23.589844 L 15.171875 -23.589844 C 14.886719 -23.589844 14.640625 -23.671875 14.4375 -23.875 C 14.234375 -24.039062 14.152344 -24.28125 14.152344 -24.605469 L 14.152344 -30.707031 C 14.152344 -30.992188 14.234375 -31.238281 14.4375 -31.441406 C 14.640625 -31.601562 14.886719 -31.722656 15.171875 -31.722656 L 27.128906 -31.722656 C 28.105469 -31.722656 28.957031 -31.359375 29.691406 -30.707031 C 29.855469 -30.503906 30.097656 -30.464844 30.339844 -30.585938 C 30.585938 -30.667969 30.707031 -30.871094 30.707031 -31.15625 L 30.707031 -40.265625 C 30.707031 -40.511719 30.546875 -40.714844 30.300781 -40.835938 C 30.058594 -40.917969 29.8125 -40.875 29.609375 -40.714844 Z M 29.609375 -40.714844 "/></g></g></g></svg>